<svg
  xmlns="http://www.w3.org/2000/svg"
  xmlns:xlink="http://www.w3.org/1999/xlink"
  viewBox="0 0 1920 1080"
  preserveAspectRatio="xMidYMid meet"
  style="width: 100%; height: 100%; transform: translate3d(0px, 0px, 0px); content-visibility: visible"
>
  <defs>
    <clipPath id="__lottie_element_2">
      <rect width="1920" height="1080" x="0" y="0"></rect>
    </clipPath>
  </defs>
  <g clip-path="url(#__lottie_element_2)">
    <g
      transform="matrix(0.2199999988079071,0,0,0.2199999988079071,410.0000915527344,-10.00006103515625)"
      opacity="1"
      style="display: block"
    >
      <g opacity="1" transform="matrix(1,0,0,1,2539.305908203125,2199.5029296875)">
        <path
          stroke-linecap="round"
          stroke-linejoin="round"
          fill-opacity="0"
          stroke="white"
          stroke-opacity="1"
          stroke-width="104"
          d=" M-182,-65 C-182,-165.51600646972656 -100.51599884033203,-247 0,-247 C100.51599884033203,-247 182,-165.51600646972656 182,-65 C182,-65 182,247 182,247"
        ></path>
      </g>
      <g opacity="1" transform="matrix(1,0,0,1,2903.305908203125,2264.5029296875)">
        <path
          stroke-linecap="round"
          stroke-linejoin="round"
          fill-opacity="0"
          stroke="white"
          stroke-opacity="1"
          stroke-width="104"
          d=" M-182,-26 C-182,-126.51599884033203 -100.51599884033203,-208 0,-208 C0,-208 0.0010000000474974513,-208 0.0010000000474974513,-208 C100.51699829101562,-208 182,-126.51599884033203 182,-26 C182,-26 182,208 182,208"
        ></path>
      </g>
      <g opacity="1" transform="matrix(1,0,0,1,2335.98095703125,2628.5029296875)">
        <path
          stroke-linecap="round"
          stroke-linejoin="round"
          fill-opacity="0"
          stroke="white"
          stroke-opacity="1"
          stroke-width="104"
          d=" M749.323974609375,-260 C749.323974609375,-360.5159912109375 830.8079833984375,-442 931.323974609375,-442 C931.323974609375,-442 931.3250122070312,-442 931.3250122070312,-442 C1031.8409423828125,-442 1113.323974609375,-360.5159912109375 1113.323974609375,-260 C1113.323974609375,-260 1113.323974609375,459.3030090332031 1113.323974609375,459.3030090332031 C1113.323974609375,937.9669799804688 725.291015625,1326 246.6280059814453,1326 C246.6280059814453,1326 246.62600708007812,1326 246.62600708007812,1326 C-62.97700119018555,1326 -349.0690002441406,1160.8480224609375 -503.90301513671875,892.7420043945312 C-503.90301513671875,892.7420043945312 -1091.780029296875,-125.20500183105469 -1091.780029296875,-125.20500183105469 C-1113.324951171875,-162.51199340820312 -1100.5439453125,-210.2220001220703 -1063.2340087890625,-231.76300048828125 C-1063.2340087890625,-231.76300048828125 -1063.2330322265625,-231.76300048828125 -1063.2330322265625,-231.76300048828125 C-926.447021484375,-310.73699951171875 -751.5369873046875,-263.8710021972656 -672.56298828125,-127.08399963378906 C-672.56298828125,-127.08399963378906 -516.5349731445312,143.16600036621094 -516.5349731445312,143.16600036621094 C-492.39801025390625,184.9739990234375 -440.3240051269531,201.4199981689453 -396.552001953125,181.05999755859375 C-363.6910095214844,165.77499389648438 -342.6759948730469,132.82200622558594 -342.6759948730469,96.58000183105469 C-342.6759948730469,96.58000183105469 -342.6759948730469,-1144 -342.6759948730469,-1144 C-342.6759948730469,-1244.5159912109375 -261.1919860839844,-1326 -160.67599487304688,-1326 C-60.15999984741211,-1326 21.323999404907227,-1244.5159912109375 21.323999404907227,-1144 C21.323999404907227,-1144 21.323999404907227,-182 21.323999404907227,-182"
        ></path>
      </g>
    </g>
  </g>
</svg>
