<svg display="none" xmlns="http://www.w3.org/2000/svg">
  <symbol width="45" height="54" viewBox="0 0 45 54" id="mark">
    <g filter="url(#filter0_d_270_7945)">
      <path
        d="M6 19.6264C6 24.9398 10.0012 32.6705 18.0036 42.8184C19.0253 44.114 20.9713 44.386 22.35 43.4258C22.5961 43.2544 22.814 43.0497 22.9964 42.8184C30.9988 32.6705 35 24.9398 35 19.6264C35 12.0929 28.5164 6 20.5 6C12.4836 6 6 12.0929 6 19.6264Z"
        fill="white"
      />
    </g>
    <circle cx="20.5" cy="20.5" r="8.5" fill="#ED0644" />
    <path
      fill-rule="evenodd"
      clip-rule="evenodd"
      d="M15.0919 15.7657C15.5431 15.7657 15.9516 15.9487 16.2473 16.2444C16.5431 16.54 16.7259 16.9486 16.7259 17.3999C16.7259 17.8512 16.5429 18.2598 16.2473 18.5555C15.9516 18.8511 15.5431 19.0341 15.0919 19.0341C14.6406 19.0341 14.2321 18.8511 13.9365 18.5555C13.6409 18.2598 13.4579 17.8512 13.4579 17.3999C13.4579 16.9486 13.6409 16.54 13.9365 16.2444C14.2321 15.9487 14.6406 15.7657 15.0919 15.7657ZM21.546 10.0486C26.8538 10.5735 31 15.0517 31 20.4986C31 26.2984 26.299 31 20.5 31C14.701 31 10 26.2984 10 20.4986C10 15.6724 13.2554 11.607 17.6896 10.3781C18.0838 10.2689 18.487 10.1821 18.8984 10.1191C19.7394 9.99041 20.6951 9.96457 21.546 10.0486ZM18.2194 14.245V26.8858V27.4984L20.8527 26.8309V23.2119H22.0556C22.8752 23.2119 23.5913 23.1064 24.211 22.9184C25.4462 22.5437 26.482 21.7752 27.0327 20.5867C27.5651 19.4377 27.5651 18.019 27.0327 16.87C26.482 15.6813 25.4462 14.9128 24.211 14.5383C23.5913 14.3503 22.8752 14.2448 22.0556 14.2448C20.7129 14.2448 19.4968 14.245 18.2194 14.245ZM20.8527 20.6471H22.1244C22.5904 20.6471 22.9866 20.598 23.32 20.5107C23.893 20.3607 24.4165 20.0629 24.6829 19.5126C24.9025 19.0589 24.9121 18.4697 24.715 18.0058C24.4795 17.4509 23.9837 17.1368 23.422 16.9712C23.0823 16.8711 22.6742 16.8123 22.1895 16.8077V16.8097H20.8525L20.8527 20.6471ZM15.0919 21.9971C15.5431 21.9971 15.9516 22.1801 16.2473 22.4758C16.5431 22.7714 16.7259 23.18 16.7259 23.6313C16.7259 24.0826 16.5429 24.4912 16.2473 24.7868C15.9516 25.0825 15.5431 25.2655 15.0919 25.2655C14.6406 25.2655 14.2321 25.0825 13.9365 24.7868C13.6409 24.4912 13.4579 24.0826 13.4579 23.6313C13.4579 23.18 13.6409 22.7714 13.9365 22.4758C14.2321 22.1801 14.6406 21.9971 15.0919 21.9971Z"
      fill="white"
    />
    <defs>
      <filter
        id="filter0_d_270_7945"
        x="0"
        y="0"
        width="45"
        height="54"
        filterUnits="userSpaceOnUse"
        color-interpolation-filters="sRGB"
      >
        <feFlood flood-opacity="0" result="BackgroundImageFix" />
        <feColorMatrix
          in="SourceAlpha"
          type="matrix"
          values="0 0 0 0 0 0 0 0 0 0 0 0 0 0 0 0 0 0 127 0"
          result="hardAlpha"
        />
        <feOffset dx="2" dy="2" />
        <feGaussianBlur stdDeviation="4" />
        <feComposite in2="hardAlpha" operator="out" />
        <feColorMatrix
          type="matrix"
          values="0 0 0 0 0 0 0 0 0 0 0 0 0 0 0 0 0 0 0.2 0"
        />
        <feBlend
          mode="normal"
          in2="BackgroundImageFix"
          result="effect1_dropShadow_270_7945"
        />
        <feBlend
          mode="normal"
          in="SourceGraphic"
          in2="effect1_dropShadow_270_7945"
          result="shape"
        />
      </filter>
    </defs>
  </symbol>
</svg>
