<svg display="none" xmlns="http://www.w3.org/2000/svg">>
    <symbol id="logo" viewBox="0 0 150 78">
        <path width="150" height="78" d="M34.1546 3.56447C34.9772 2.34568 35.9465 1.49446 37.0561 1.01727C38.1576 0.540071 39.2092 0.304697 40.1849 0.304697C40.3317 0.304697 40.9849 0.364345 42.1687 0.482032V7.26436C41.5816 7.02898 40.9285 6.9113 40.1849 6.9113C39.0318 6.9113 38.0189 7.15312 37.1512 7.63838C36.2851 8.12364 35.6239 8.82008 35.1529 9.7374C34.6901 10.6483 34.4546 11.7349 34.4546 12.9891V22.0623H26.7437V0.788342H34.1546V3.56285V3.56447ZM17.8055 55.982H25.3131V66.6931C25.3131 69.2161 25.6276 71.291 28.6162 71.291H28.6936H28.771C31.7596 71.291 32.0741 69.2161 32.0741 66.6931V55.982H39.5817V67.13C39.5817 69.724 39.0931 72.2373 38.0689 73.7721C36.2368 76.5176 31.8757 77.4639 28.7727 77.4639H28.6952H28.6178C25.5131 77.4639 21.1537 76.5176 19.3215 73.7721C18.2974 72.2373 17.8087 69.724 17.8087 67.13V55.982H17.8055ZM7.41411 58.7952C8.23665 57.5764 9.20595 56.7252 10.3156 56.248C12.3655 55.3613 13.3557 55.5064 15.4266 55.7128V62.4951C14.8395 62.2597 14.1847 62.142 13.4428 62.142C12.2897 62.142 11.2752 62.3838 10.4091 62.8691C9.54304 63.3527 8.88178 64.0508 8.41084 64.9697C7.94796 65.8806 7.71248 66.9672 7.71248 68.2214V77.2963H0.00161439V56.0207H7.4125V58.7952H7.41411ZM49.7102 47.0716C51.2892 47.0716 52.4714 46.5138 53.2649 45.4047C54.0648 44.2971 54.4616 42.8784 54.4616 41.1679C54.4616 39.48 54.0648 38.0774 53.2713 36.9683C52.4778 35.8591 51.2956 35.3094 49.7086 35.3094C48.1152 35.3094 46.9249 35.8591 46.133 36.9683C45.3395 38.0774 44.9428 39.4784 44.9428 41.1679C44.9428 42.8784 45.3395 44.2955 46.1395 45.4047C46.933 46.5122 48.1232 47.0716 49.7086 47.0716H49.7102ZM49.7102 52.6223C47.0668 52.6223 44.7815 52.1451 42.8574 51.1842C40.9333 50.2298 39.4721 48.8853 38.4657 47.1538C37.4673 45.4208 36.9674 43.4314 36.9674 41.1711C36.9674 37.7437 38.098 34.9901 40.3607 32.8976C42.6155 30.805 45.7362 29.7619 49.7102 29.7619C52.3327 29.7619 54.6084 30.2391 56.5325 31.1935C58.4501 32.1479 59.9194 33.4925 60.9241 35.2175C61.9305 36.9505 62.437 38.9319 62.437 41.1711C62.437 43.433 61.937 45.4224 60.9387 47.1538C59.9323 48.8869 58.4711 50.2298 56.547 51.1842C54.6229 52.1467 52.3391 52.6223 49.7102 52.6223ZM65.4723 51.8291V36.1041H62.6966V30.5535H65.4723V24.6949H73.1832V30.5535H76.9572V36.1041H73.1832V51.8291H65.4723ZM79.6296 30.5551H87.3405V51.8291H79.6296V30.5551ZM102.515 47.0732C104.094 47.0732 105.277 46.5154 106.07 45.4063C106.872 44.2987 107.267 42.88 107.267 41.1695C107.267 39.4816 106.87 38.079 106.077 36.9699C105.285 35.8623 104.101 35.311 102.514 35.311C100.92 35.311 99.7301 35.8607 98.9382 36.9699C98.1447 38.079 97.748 39.48 97.748 41.1695C97.748 42.88 98.1447 44.2971 98.9447 45.4063C99.7382 46.5138 100.928 47.0732 102.514 47.0732H102.515ZM102.515 52.6239C99.8721 52.6239 97.5883 52.1467 95.6626 51.1858C93.7385 50.2314 92.2773 48.8869 91.2709 47.1555C90.2726 45.4224 89.7726 43.433 89.7726 41.1728C89.7726 37.7453 90.9048 34.9918 93.166 32.8992C95.4207 30.8066 98.5415 29.7636 102.514 29.7636C105.136 29.7636 107.412 30.2408 109.338 31.1951C111.254 32.1495 112.723 33.4941 113.729 35.2191C114.736 36.9521 115.242 38.9335 115.242 41.1728C115.242 43.4346 114.742 45.424 113.744 47.1555C112.737 48.8885 111.276 50.2314 109.352 51.1858C107.428 52.1483 105.144 52.6239 102.514 52.6239H102.515ZM125.372 33.0233C127.04 30.8501 129.338 29.7636 132.291 29.7636C135.412 29.7636 137.462 30.7631 138.423 32.7525C139.386 34.7499 139.87 36.9666 139.87 39.4107V51.8323H132.159V40.1087C132.159 37.4438 131.248 36.1074 129.427 36.1074C128.259 36.1074 127.29 36.5765 126.525 37.5083C125.755 38.4482 125.372 39.725 125.372 41.3469V51.8307H117.661V30.5567H125.372V33.0233ZM141.979 48.6161C141.979 47.9325 142.155 47.2876 142.5 46.6702C142.846 46.0543 143.331 45.5546 143.941 45.1806C144.557 44.7985 145.241 44.6083 145.989 44.6083C147.179 44.6083 148.148 45.0113 148.89 45.827C149.632 46.6412 150 47.5665 150 48.6161C150 49.643 149.632 50.5764 148.89 51.3906C148.157 52.2128 147.187 52.6239 145.989 52.6239C144.844 52.6239 143.889 52.2208 143.125 51.4051C142.36 50.5893 141.979 49.6575 141.979 48.6161V48.6161ZM7.71409 29.9232V30.5567V32.8025C9.54303 30.776 11.7752 29.7636 14.4121 29.7636C17.4604 29.7636 19.5893 30.8501 20.8021 33.0233C21.7279 31.8561 22.7181 31.0194 23.7761 30.5197C24.8261 30.0134 26.0825 29.7636 27.5372 29.7636C29.4016 29.7636 30.879 30.1747 31.9725 30.9968C33.066 31.819 33.8159 32.8025 34.2336 33.9632C34.653 35.1223 34.8578 36.275 34.8578 37.4277V51.8307H27.1469V39.4091C27.1469 37.2069 26.3389 36.1058 24.7164 36.1058C23.8197 36.1058 23.0278 36.4508 22.3294 37.1472C21.6327 37.8437 21.286 38.9319 21.286 40.4215V51.8307H13.5751V39.4091C13.5751 37.2069 12.767 36.1058 11.1591 36.1058C10.2559 36.1058 9.45593 36.4508 8.75758 37.1408C8.05923 37.8372 7.71409 38.9254 7.71409 40.4215V51.8307H0.00322878V32.8621V32.4446L7.71409 29.9232V29.9232ZM56.0276 17.4032C57.6066 17.4032 58.7888 16.8454 59.5823 15.7362C60.3822 14.6271 60.7806 13.2116 60.7806 11.4995C60.7806 9.81156 60.3839 8.40899 59.5903 7.29982C58.7968 6.19066 57.6146 5.64092 56.0276 5.64092C54.4342 5.64092 53.2439 6.19066 52.4504 7.29982C51.6569 8.40737 51.2601 9.80994 51.2601 11.4995C51.2601 13.21 51.6569 14.6271 52.4569 15.7362C53.2504 16.8438 54.4406 17.4032 56.026 17.4032H56.0276ZM55.6777 22.8603C53.0342 22.8603 51.0989 22.4766 49.1748 21.5142C47.2507 20.5598 45.7895 19.2169 44.7831 17.4838C43.7847 15.7507 43.2848 13.7613 43.2848 11.5011C43.2848 8.07366 44.4153 5.3201 46.6781 3.22753C48.9328 1.13496 52.0537 0.0935051 56.0276 0.0935051C58.6501 0.0935051 60.9258 0.5707 62.8498 1.52509C64.7659 2.47949 66.2351 3.82402 67.2415 5.54903C68.2479 7.28209 68.7544 9.26343 68.7544 11.5027C68.7544 13.7646 68.2544 15.7539 67.2561 17.4854C66.2497 19.2185 64.7885 20.5614 62.8644 21.5158C60.9403 22.4782 58.3065 22.8619 55.6777 22.8619V22.8603ZM7.4125 0.793179V3.38391C8.41083 2.14416 9.45433 1.27037 10.5414 0.764159C11.6365 0.257943 12.9283 0 14.4186 0C15.9975 0 17.4071 0.301472 18.6635 0.896356C19.9118 1.49769 20.9553 2.31344 21.7843 3.34844C22.6068 4.38344 23.2391 5.60223 23.6713 6.98868C24.1052 8.37674 24.3245 9.85186 24.3245 11.4076C24.3245 13.3535 23.9503 15.2026 23.2084 16.9582C22.4585 18.7123 21.3359 20.1374 19.8296 21.224C18.3313 22.3186 16.5249 22.8619 14.417 22.8619C11.7284 22.8619 9.49625 21.8785 7.71087 19.9036V25.846L0 28.3674V28.3336V0.79479H7.41088L7.4125 0.793179ZM12.7896 16.5181C14.2428 16.5181 15.3814 16.0329 16.1975 15.064C17.0136 14.095 17.4168 12.8763 17.4168 11.4076C17.4168 9.95504 17.0136 8.7427 16.1975 7.78186C15.3814 6.8194 14.2444 6.34382 12.7896 6.34382C11.2107 6.34382 10.043 6.85809 9.29305 7.8931C8.54309 8.9281 8.16892 10.0953 8.16892 11.4092C8.16892 12.7457 8.54309 13.9274 9.29305 14.9624C10.0495 15.9974 11.2091 16.5181 12.7896 16.5181Z" fill="currentColor"/>
    </symbol>
    <symbol width="96" height="96" id="arrow" viewBox="0 0 96 96">
        <g filter="url(#filter0_d_478_2519)">
        <circle cx="38" cy="38" r="28" fill="currentColor"/>
        </g>
        <path d="M35.5 33L41 38.5L35.5 44" stroke="#212121" stroke-width="2"/>
    </symbol>
    <symbol id="banner-alpha-bank" viewBox="0 0 123 26" width="123" height="26" >
        <path d="M118.781 5.59414L114.584 10.2614V5.59414H111.547V17.3763H114.584V12.4175L119.077 17.3763H123L117.475 11.2029L122.6 5.59414H118.781Z" fill="#EF3124"/>
        <path d="M106.193 9.98836H101.996V5.59414H98.9571V17.3763H101.996V12.7308H106.193V17.3763H109.23V5.59414H106.193V9.98836Z" fill="#EF3124"/>
        <path d="M18.033 11.9769C17.9604 14.1749 17.6751 14.6138 16.431 14.6138V17.3763H16.8952C19.9997 17.3763 20.7459 15.7848 20.8607 12.2483L20.9873 8.33487H23.8977V17.3763H26.9347V5.59414H18.2457L18.0347 11.9769H18.033Z" fill="#EF3124"/>
        <path d="M34.4825 9.17251H32.2896V5.59414H29.2526V17.3763H34.5247C37.8352 17.3763 39.017 15.242 39.017 13.2317C39.017 10.6367 37.3727 9.17083 34.4825 9.17083M34.2513 14.7796H32.2896V11.7859H34.2513C35.3064 11.7859 35.9377 12.2466 35.9377 13.23C35.9377 14.2971 35.3266 14.7796 34.2513 14.7796Z" fill="#EF3124"/>
        <path d="M48.9079 5.32107V0.946949H45.8709V5.32107C42.3916 5.61424 40.0501 8.06348 40.0501 11.4743C40.0501 14.8852 42.3916 17.3562 45.8709 17.6477V22.0855H48.9079V17.6477C52.3873 17.3763 54.7288 14.9053 54.7288 11.4743C54.72  88 8.04338 52.3873 5.59246 48.9079 5.32107ZM45.8709 14.8031C44.1844 14.5719 43.1293 13.3171 43.1293 11.476C43.1293 9.63488 44.1844 8.37843 45.8709 8.14892V14.8048V14.8031ZM48.9079 14.8031V8.14724C50.5944 8.37676 51.6495 9.63321 51.6495 11.4743C51.6495 13.3154 50.5944 14.5719 48.9079 14.8014" fill="#EF3124"/>
        <path d="M66.1188 13.756V9.80073C66.1188 6.91257 64.2635 5.09156 61.1421 5.09156C58.0207 5.09156 56.2076 7.01811 56.059 9.02676H59.1383C59.2429 8.58784 59.7072 7.83397 61.1421 7.83397C62.3238 7.83397 63.0818 8.37843 63.0818 9.80073H60.0651C57.3657 9.80073 55.7619 11.2029 55.7619 13.5466C55.7619 15.8903 57.5159 17.6695 60.0431 17.6695C61.8967 17.6695 62.9265 16.8 63.3756 16.1416C63.7757 16.9374 64.6619 17.3763 65.8217 17.3763H66.8768V14.6557C66.3282 14.6557 66.1171 14.4044 66.1171 13.756M63.0801 12.9821C63.0801 14.3424 62.1094 15.1164 60.845 15.1164C59.7477 15.1164 58.8833 14.7193 58.8833 13.5466C58.8833 12.3739 59.8321 12.2081 60.6542 12.2081H63.0801V12.9821Z" fill="#EF3124"/>
        <path d="M79.1329 7.26773H75.738V3.94065H83.6049V0.946949H72.5524V17.3763H79.1329C82.7811 17.3763 84.8693 15.5771 84.8693 12.2701C84.8693 9.1524 82.7811 7.26773 79.1329 7.26773ZM78.9844 14.4044H75.7363V10.1341H78.9844C80.6708 10.1341 81.6213 10.9081 81.6213 12.2684C81.6213 13.6287 80.6725 14.4027 78.9844 14.4027" fill="#EF3124"/>
        <path d="M96.4907 13.756V9.80073C96.4907 6.91257 94.6354 5.09156 91.514 5.09156C88.3925 5.09156 86.5794 7.01811 86.4309 9.02676H89.5101C89.6148 8.58784 90.079 7.83397 91.514 7.83397C92.6957 7.83397 93.4537 8.37843 93.4537 9.80073H90.4369C87.7375 9.80073 86.1338 11.2029 86.1338 13.5466C86.1338 15.8903 87.8878 17.6695 90.415 17.6695C92.2686 17.6695 93.2984 16.8 93.7474 16.1416C94.1475 16.9374 95.0338 17.3763 96.1936 17.3763H97.2487V14.6557C96.7 14.6557 96.489 14.4044 96.489 13.756M93.452 12.9821C93.452 14.3424 92.4813 15.1164 91.2168 15.1164C90.1195 15.1164 89.2552 14.7193 89.2552 13.5466C89.2552 12.3739 90.2039 12.2081 91.0261 12.2081H93.452V12.9821Z" fill="#EF3124"/>
        <path d="M16.2402 22.4004H0V25.7493H16.2402V22.4004Z" fill="#EF3124"/>
        <path d="M11.0727 3.20186C10.6085 1.83149 10.075 0.749268 8.24671 0.749268C6.41842 0.749268 5.84951 1.82646 5.36331 3.20186L0.337634 17.3763H3.67008L4.82985 14.0073H11.2415L12.3169 17.3763H15.8603L11.0727 3.20186ZM5.80055 11.161L8.07789 4.44323H8.1623L10.313 11.161H5.79886H5.80055Z" fill="#EF3124"/>
    </symbol>
    <symbol id="banner-ivi" viewBox="0 0 79 38" width="79" height="38">
        <path d="M26.671 21.089C25.4262 31.9382 22.8346 33.9975 11.9848 32.7532C1.13605 31.5083 -0.922185 28.9162 0.321134 18.067C1.56597 7.21769 4.15807 5.15945 15.0074 6.40429C25.8567 7.64813 27.9159 10.2402 26.671 21.0895V21.089Z" fill="url(#paint0_linear_435_8627)"/>
        <path d="M17.951 13.0493C16.857 13.0493 15.9815 13.4869 15.1066 14.7756L11.7031 19.9053L12.0189 15.918C12.1164 14.4107 11.1682 13.0493 9.49044 13.0493C7.93431 13.0493 6.96193 14.0948 6.86456 15.4321L6.32968 22.7744C6.20807 24.598 7.15621 25.643 8.66343 25.643C10.1706 25.643 11.1188 24.549 11.8242 23.552L15.1061 18.5681L14.8144 22.7739C14.6686 24.4759 15.5925 25.6425 17.2698 25.6425C18.826 25.6425 19.8467 24.7186 19.9441 23.333L20.479 15.918C20.6006 14.4592 19.8957 13.0493 17.9505 13.0493H17.951Z" fill="url(#paint1_linear_435_8627)"/>
        <path d="M12.0138 15.9216L11.698 19.9089L11.8191 23.5556C11.1137 24.5527 10.1655 25.6467 8.65831 25.6467C7.1511 25.6467 6.20295 24.6016 6.32455 22.7781L6.85945 15.4357C6.95682 14.0985 7.92919 13.053 9.48533 13.053C11.1631 13.053 12.1113 14.4144 12.0138 15.9216Z" fill="url(#paint2_linear_435_8627)"/>
        <path d="M12.0242 15.7103C12.0242 14.3197 11.125 13.0486 9.47142 13.0486C7.81785 13.0486 6.85864 14.2884 6.85864 15.6255C6.85864 17.0601 7.93491 18.1783 9.44212 18.1783C10.9493 18.1783 12.0242 17.1443 12.0242 15.7103Z" fill="white"/>
        <path d="M75.9868 13.0295C74.9038 13.0295 74.0032 13.4625 73.1484 14.7623L69.7404 19.9031L70.0481 15.8911C70.1622 14.3864 69.2161 13.0301 67.5292 13.0301C65.9564 13.0301 64.9876 14.0902 64.8963 15.4239L64.3604 22.7531C64.2352 24.5994 65.1808 25.6252 66.7315 25.6252C68.2821 25.6252 69.1706 24.5651 69.8544 23.5392L73.1484 18.5584L72.8522 22.7531C72.727 24.4743 73.6272 25.6252 75.3141 25.6252C76.8759 25.6252 77.879 24.7018 77.9814 23.3112L78.5284 15.8906C78.6308 14.4545 77.9244 13.0295 75.9868 13.0295ZM63.0156 22.0911C63.0156 20.4153 61.739 19.3324 60.0522 19.1159C61.6249 18.7855 63.0045 17.748 63.0045 16.0612C63.0045 14.1917 61.5568 13.132 58.9012 13.1431H53.5212C51.0366 13.1431 50.1131 14.1462 49.9194 16.8817L49.5999 21.4639C49.3835 24.5414 50.261 25.5102 53.2931 25.5102H58.445C61.4085 25.5102 63.0156 24.2911 63.0156 22.0911ZM57.9318 21.7605C57.9318 22.8207 57.1113 23.3222 55.7434 23.3222L54.2932 23.3107C54.2932 23.3107 54.5207 21.8181 54.6671 20.3245H55.9942C57.134 20.3245 57.9318 20.7917 57.9318 21.7605ZM57.9888 16.7454C57.9888 17.6572 57.2481 18.2041 55.9372 18.2041H54.8462C54.8462 18.2041 54.9552 16.5415 54.8841 15.3431H56.085C57.2819 15.3431 57.9883 15.8563 57.9883 16.7448L57.9888 16.7454Z" fill="#F40846"/>
        <path d="M45.8657 13.0493C44.7717 13.0493 43.8963 13.4868 43.0213 14.7756L39.6178 19.9053L39.9337 15.918C40.0311 14.4107 39.083 13.0493 37.4052 13.0493C35.849 13.0493 34.8767 14.0948 34.7793 15.4321L34.2444 22.7744C34.1228 24.598 35.0709 25.643 36.5782 25.643C38.0854 25.643 39.0335 24.549 39.7389 23.552L43.0208 18.5681L42.7291 22.7739C42.5833 24.4759 43.5072 25.6425 45.1845 25.6425C46.7407 25.6425 47.7615 24.7186 47.8588 23.333L48.3938 15.918C48.5153 14.4592 47.8109 13.0493 45.8657 13.0493Z" fill="#F40846"/>
    </symbol>
    <symbol id="banner-megafone" viewBox="0 0 119 23">
        <path d="M11.8609 0.290084V11.637C11.8609 12.1676 11.4694 12.535 10.9997 12.535H9.7079C9.62961 12.535 9.59046 12.6166 9.59046 12.6574V22.1676C9.90362 22.1676 10.2168 22.2493 10.5691 22.2493C16.4016 22.2493 21.1382 17.3105 21.1382 11.2289C21.1382 5.63702 17.1063 0.943145 11.8609 0.290084ZM11.626 17.2697C10.8822 17.2697 10.3342 16.6166 10.3342 15.9227C10.3342 15.1472 10.9605 14.5758 11.626 14.5758C12.3697 14.5758 12.9178 15.2289 12.9178 15.9227C12.9961 16.6574 12.3697 17.2697 11.626 17.2697ZM14.7184 17.2697C13.9747 17.2697 13.4266 16.6166 13.4266 15.9227C13.4266 15.1472 14.053 14.5758 14.7184 14.5758C15.4622 14.5758 16.0102 15.2289 16.0102 15.9227C16.0102 16.6166 15.5013 17.2697 14.7184 17.2697ZM17.85 17.2697C17.1062 17.2697 16.5582 16.6166 16.5582 15.9227C16.5582 15.1472 17.1845 14.5758 17.85 14.5758C18.5938 14.5758 19.1418 15.2289 19.1418 15.9227C19.1418 16.6166 18.5938 17.2697 17.85 17.2697Z" fill="#00B956"/>
        <path d="M10.5691 0.249268C4.73651 0.249268 0 5.18804 0 11.2697C0 16.6166 3.56217 20.984 8.33783 22.0044V12.086C8.33783 11.637 8.72928 11.2697 9.12072 11.188H10.4125C10.4908 11.188 10.5299 11.1064 10.5299 11.0656L10.5691 0.249268ZM8.53355 9.31049C7.7898 9.31049 7.24178 8.65743 7.24178 7.96355C7.24178 7.18804 7.86809 6.61661 8.53355 6.61661C9.2773 6.61661 9.82533 7.26968 9.82533 7.96355C9.82533 8.65743 9.23816 9.31049 8.53355 9.31049Z" fill="#00B956"/>
        <path d="M116.377 6.24927V10.4125H111.054V6.24927H108.353V17.2697H111.054V12.8207H116.377V17.2697H119V6.24927H116.377ZM72.3786 7.51457C71.948 6.53498 71.0868 6.00437 70.2257 6.00437C69.3645 6.00437 68.4641 6.53498 68.0727 7.51457L63.8059 17.3105H66.6243L67.5638 14.984H73.0441L73.9836 17.3105H76.802L72.3786 7.51457ZM68.3076 12.7799L69.9125 8.73906C69.9908 8.61661 70.0299 8.61661 70.1082 8.61661C70.1865 8.61661 70.3039 8.61661 70.3039 8.73906L71.9089 12.7799H68.3076ZM40.9062 4.29008C39.6536 4.29008 38.8707 4.98396 38.2836 6.37172L34.878 14.6574L31.4332 6.3309C30.8852 4.98396 30.0632 4.24927 28.8105 4.24927C27.6362 4.24927 26.4618 5.06559 26.4618 6.98396V17.2289H29.0845V7.35131L32.5684 15.5554C32.999 16.7391 33.8211 17.4329 34.878 17.4329C36.0132 17.4329 36.7569 16.7391 37.1875 15.5554L40.6714 7.35131V17.3513H43.2941V7.10641C43.2549 5.18804 42.0806 4.29008 40.9062 4.29008ZM47.9132 14.9431C47.7957 14.9431 47.6391 14.8207 47.6391 14.6574V12.6982H54.2155V10.4534H47.6391V8.77988C47.6391 8.65743 47.7566 8.49417 47.9132 8.49417H54.4503V6.16763H46.6214C45.6819 6.16763 45.0556 6.94314 45.0556 7.80029V15.5146C45.0556 16.3309 45.7211 17.1472 46.6214 17.1472H54.4503V14.8207H47.9132V14.9431ZM58.8737 17.2697V8.86151C58.8737 8.73906 58.9911 8.5758 59.1477 8.5758H65.6849V6.24927H57.8559C56.9165 6.24927 56.2901 7.02478 56.2901 7.88192V17.2289L58.8737 17.2697ZM106.63 11.8003C106.63 7.96355 105.025 6.16763 101.033 6.16763H100.093C96.1003 6.16763 94.4954 8.00437 94.4954 11.8003C94.4954 15.5554 96.1003 17.4329 100.093 17.4329H100.954C105.025 17.3513 106.63 15.5554 106.63 11.8003ZM100.954 15.1064H100.093C97.9401 15.1064 97.0398 14.086 97.0398 11.8003C97.0398 9.59621 97.7836 8.49417 100.093 8.49417H100.954C103.186 8.49417 104.008 9.59621 104.008 11.8003C104.008 14.0452 103.186 15.1064 100.954 15.1064ZM87.1753 4.53498H81.9299C78.0155 4.53498 76.4497 6.61661 76.4497 10.1676C76.4497 10.7391 76.528 11.2697 76.5671 11.7187C76.9977 14.2493 78.4461 15.8003 82.0865 15.8003H83.2609V17.2289H85.8836V15.8003H87.0188C90.6984 15.8003 92.1467 14.2493 92.5382 11.7187C92.6164 11.2697 92.6556 10.7391 92.6556 10.1676C92.6165 6.61661 91.0115 4.53498 87.1753 4.53498ZM82.0082 13.5146C80.2076 13.5146 79.5813 12.8207 79.1898 11.6778C79.0724 11.2697 79.0724 10.6982 79.0724 10.1268C79.0724 7.80029 80.1293 6.8207 81.6168 6.8207H83.2217V13.5146H82.0082ZM89.9155 11.8003C89.524 12.9023 88.8586 13.637 87.097 13.637H85.9227V6.90233H87.5276C89.0151 6.90233 90.072 7.88192 90.072 10.2085C90.0329 10.8207 90.0329 11.3105 89.9155 11.8003Z" fill="#00B956"/>
    </symbol>
    <symbol id="banner-mts" viewBox="0 0 62 17">
        <path d="M1.87879 3.32167C3.01254 1.39093 4.37304 0.249268 5.52299 0.249268C6.67293 0.249268 8.03343 1.39093 9.15099 3.32167C10.3171 5.31957 11.0136 7.78757 11.0136 9.93657C11.0136 13.0761 9.31295 16.2493 5.50679 16.2493C1.70063 16.2493 0 13.0761 0 9.93657C0 7.78757 0.712644 5.31957 1.87879 3.32167Z" fill="#E30613"/>
        <path d="M26.8699 1.10553L24.6672 9.63439L22.4645 1.10553H15.1761V15.393H19.3062V3.77499L22.3025 15.393H27.0481L30.0444 3.7582V15.393H34.1745V1.10553H26.8699Z" fill="#E30613"/>
        <path d="M39.1306 4.96702H35.2758V1.10553H47.1316V4.96702H43.2607V15.393H39.1306V4.96702Z" fill="#E30613"/>
        <path d="M62 4.96702H55.9425C53.3673 4.96702 51.6667 5.924 51.6667 8.2241C51.6667 10.5578 53.3673 11.5148 55.9425 11.5148H62V15.3763H55.9425C50.3872 15.3763 47.407 12.5053 47.407 8.24089C47.407 3.97646 50.371 1.10553 55.9425 1.10553H62V4.96702Z" fill="#E30613"/>
    </symbol>
    <symbol id="banner-tinkoff" viewBox="0 0 64 20">
        <path d="M9.61907 13.2282V4.56982H15.1853V1.41912H0V4.56982H5.56602V13.2282H9.61907ZM20.7252 8.2912V1.41912H16.8074V13.2282H20.2659L27.0209 6.35608V13.2282H30.9389V1.41912H27.4802L20.7252 8.2912ZM44.1197 8.83704V13.2282H48.0381V1.41912H44.1197V5.73582H37.8239V1.41912H33.9061V13.2282H37.8239V8.83704H44.1197ZM58.9485 13.2282C59.8399 13.2282 60.6505 13.1538 61.4073 12.9553C63.435 12.4344 64.7575 10.9209 64.7575 8.86178C64.7575 6.90192 63.6235 5.53749 61.8137 4.91711C60.9469 4.61951 59.9219 4.59466 58.9485 4.59466H54.9224V1.41912H51.0052V13.2282H58.9485ZM58.2726 7.37333C58.8138 7.37333 59.3268 7.37333 59.786 7.52219C60.435 7.72062 60.8134 8.21678 60.8134 8.8122C60.8134 9.43246 60.435 9.95346 59.813 10.2015C59.3807 10.3752 58.9485 10.3752 58.2726 10.3752H54.9224V7.37333H58.2726ZM71.7823 8.76261L76.4574 13.2282H81.6713L75.1607 7.07551L81.4288 1.41912H76.5113L71.7823 5.85993H70.7023V1.41912H66.7851V13.2282H70.7023V8.76261H71.7823ZM89.7329 1.09667C84.4639 1.09667 81.3035 3.82554 81.3035 7.34838C81.3035 10.8714 84.4639 13.6004 89.7329 13.6004C94.9761 13.6004 98.1377 10.8714 98.1377 7.34838C98.1377 3.82554 94.9761 1.09667 89.7329 1.09667ZM89.7329 10.7226C87.1125 10.7226 85.4385 9.28361 85.4385 7.34838C85.4385 5.41347 87.1125 3.99924 89.7329 3.99924C92.3275 3.99924 94.0296 5.41347 94.0296 7.34838C94.0296 9.28361 92.3275 10.7226 89.7329 10.7226ZM111.186 0.749268H107.268V1.94C102.35 2.03928 99.404 3.94955 99.404 7.32364C99.404 10.6976 102.35 12.4592 107.268 12.5584V13.7493H111.186V12.5584C116.129 12.4592 119.075 10.6976 119.075 7.32364C119.075 3.94955 116.129 2.03928 111.186 1.94V0.749268ZM107.268 10.0279C104.565 9.92861 103.376 8.91147 103.376 7.32364C103.376 5.73582 104.565 4.59466 107.268 4.4955V10.0279ZM111.186 4.4955C113.915 4.59466 115.076 5.73582 115.076 7.32364C115.076 8.91147 113.915 9.92861 111.186 10.0279V4.4955ZM132.109 0.749268H128.191V1.94C123.274 2.03928 120.33 3.94955 120.33 7.32364C120.33 10.6976 123.274 12.4592 128.191 12.5584V13.7493H132.109V12.5584C137.055 12.4592 140 10.6976 140 7.32364C140 3.94955 137.055 2.03928 132.109 1.94V0.749268ZM128.191 10.0279C125.49 9.92861 124.301 8.91147 124.301 7.32364C124.301 5.73582 125.49 4.59466 128.191 4.4955V10.0279ZM132.109 4.4955C134.839 4.59466 136.001 5.73582 136.001 7.32364C136.001 8.91147 134.839 9.92861 132.109 10.0279V4.4955Z" fill="#212121"/>
    </symbol>
    <symbol id="banner-yandex" viewBox="0 0 64 20">
        <path fill-rule="evenodd" clip-rule="evenodd" d="M7.8034 17.0616H10.5658V0.749268H6.53308C2.50032 0.749268 0.362949 2.87876 0.362949 6.0213C0.362949 8.52293 1.53245 10.0115 3.60933 11.5414L0 17.0616H3.00441L7.03718 10.9005L5.64587 9.92881C3.95211 8.75036 3.12539 7.84067 3.12539 5.87658C3.12539 4.13991 4.31506 2.96145 6.57341 2.96145H7.8034V17.0616ZM61.1771 17.289C62.4272 17.289 63.3346 17.0616 64 16.5654V14.2912C63.3144 14.7874 62.4877 15.0975 61.3384 15.0975C59.4026 15.0975 58.5961 13.5469 58.5961 11.1073C58.5961 8.66766 59.5841 7.24111 61.3585 7.24111C62.4071 7.24111 63.4354 7.61325 63.9798 7.96472V5.58713C63.4153 5.25634 62.4071 5.02892 61.0561 5.02892C57.5879 5.02892 55.7732 7.59257 55.7732 11.1693C55.7732 15.1181 57.5274 17.289 61.1771 17.289ZM44.1588 16.2553V13.981C43.3119 14.5599 41.9004 15.0768 40.5696 15.0768C38.5734 15.0768 37.8274 14.1051 37.7064 12.141H44.2798V10.6731C44.2798 6.55884 42.5255 5.02892 39.8034 5.02892C36.4965 5.02892 34.9036 7.63392 34.9036 11.19C34.9036 15.3042 36.8797 17.289 40.3478 17.289C42.0819 17.289 43.3724 16.8135 44.1588 16.2553ZM19.2161 5.25634V9.92881H15.5866V5.25634H12.8645V17.0616H15.5866V12.141H19.2161V17.0616H21.9382V5.25634H19.2161ZM34.218 14.8494H33.0082V5.25634H25.0636V6.2694C25.0636 9.16385 24.8822 12.8853 23.9143 14.8494H23.0674V19.7493H25.5879V17.0616H31.6975V19.7493H34.218V14.8494ZM52.8494 17.0616L48.8166 11.2727V17.0616H46.0945V5.25634H48.8166V10.6938L52.6679 5.25634H55.4102L51.5589 10.6938L55.9345 17.0409H52.8494V17.0616ZM39.7429 7.24111C41.0939 7.24111 41.4972 8.39889 41.4972 9.86679V10.0942H37.7064C37.7669 8.21281 38.4323 7.24111 39.7429 7.24111ZM30.2861 14.87H26.4348C27.1808 13.092 27.4026 9.86679 27.4026 7.84067V7.4892H30.2861V14.87Z" fill="black"/>
    </symbol>
    <symbol id="key" viewBox="0 0 12 12">
        <path d="M0 12L0.220024 9.87601L5.05456 4.95601C4.80789 4.29685 4.75389 3.58112 4.89887 2.89242C5.04386 2.20371 5.38183 1.57048 5.87332 1.06668C6.20368 0.728137 6.59844 0.459104 7.03436 0.275417C7.47028 0.0917299 7.93855 -0.00289917 8.4116 -0.00289917C8.88465 -0.00289917 9.35292 0.0917299 9.78884 0.275417C10.2248 0.459104 10.6195 0.728137 10.9499 1.06668C11.6229 1.75809 11.9995 2.68484 11.9995 3.64968C11.9995 4.61452 11.6229 5.54127 10.9499 6.23268C10.4652 6.72969 9.84534 7.07362 9.1671 7.22187C8.48885 7.37011 7.78201 7.31615 7.13413 7.06668L5.52728 8.70201L4.26047 8.81934L4.14513 10.1113L2.87832 10.228L2.76297 11.52L0 12ZM9.001 2.00001C8.76963 2.00012 8.54544 2.08043 8.36665 2.22728C8.18786 2.37412 8.06552 2.57841 8.02048 2.80533C7.97543 3.03226 8.01047 3.26778 8.11963 3.47176C8.22878 3.67575 8.40529 3.83559 8.61909 3.92404C8.83288 4.01249 9.07074 4.02408 9.29212 3.95684C9.51351 3.8896 9.70473 3.74769 9.83321 3.55529C9.96169 3.36288 10.0195 3.13189 9.99672 2.90166C9.97396 2.67143 9.87207 2.45621 9.70841 2.29268C9.61567 2.1996 9.50541 2.12581 9.38399 2.07557C9.26257 2.02534 9.1324 1.99966 9.001 2.00001Z" fill="white"/>
    </symbol>
    <symbol id="pointer" viewBox="0 0 79 80">
        <path d="M43.1316 3.51085L43.1311 3.5108C40.1678 3.21904 36.8679 3.30792 33.9374 3.75515L34.39 6.72082L33.9374 3.75515C32.5074 3.9734 31.1051 4.27446 29.7347 4.65301L29.7343 4.6531C14.3255 8.91133 3 22.9986 3 39.7412C3 59.857 19.3492 76.1497 39.5 76.1497C59.6508 76.1497 76 59.857 76 39.7412C76 20.8483 61.5797 5.33 43.1316 3.51085Z" fill="#ED0644" stroke="white" stroke-width="6"/>
        <path fill-rule="evenodd" clip-rule="evenodd" d="M24.2251 25.0054C25.6648 25.0054 26.9681 25.5876 27.9113 26.5283C28.8552 27.4689 29.4383 28.7686 29.4383 30.2044C29.4383 31.6402 28.8545 32.9399 27.9113 33.8805C26.9681 34.8212 25.6648 35.4033 24.2251 35.4033C22.7854 35.4033 21.4821 34.8212 20.5389 33.8805C19.5957 32.9399 19.0119 31.6402 19.0119 30.2044C19.0119 28.7686 19.5957 27.4689 20.5389 26.5283C21.4821 25.5876 22.7854 25.0054 24.2251 25.0054ZM34.2034 20.1677V60.3822V62.3311L42.6049 60.2075V48.6942H46.4428C49.0577 48.6942 51.3423 48.3586 53.3194 47.7605C57.2605 46.5685 60.5651 44.1237 62.322 40.3426C64.0207 36.6872 64.0207 32.174 62.322 28.5186C60.5651 24.7368 57.2605 22.292 53.3194 21.1007C51.3423 20.5026 49.0577 20.167 46.4428 20.167C42.159 20.167 38.2788 20.1677 34.2034 20.1677ZM42.6049 40.5346H46.6623C48.1491 40.5346 49.413 40.3785 50.4767 40.1009C52.3049 39.6237 53.9752 38.6762 54.8249 36.9255C55.5257 35.4821 55.5562 33.6077 54.9274 32.1319C54.176 30.3667 52.5943 29.3674 50.8021 28.8404C49.7184 28.5221 48.4165 28.3349 46.8701 28.3204V28.3266H42.6042V40.5339L42.6049 40.5346ZM24.2251 44.8296C25.6648 44.8296 26.9681 45.4117 27.9113 46.3524C28.8552 47.293 29.4383 48.5927 29.4383 50.0285C29.4383 51.4643 28.8545 52.764 27.9113 53.7047C26.9681 54.6453 25.6648 55.2275 24.2251 55.2275C22.7854 55.2275 21.4821 54.6453 20.5389 53.7047C19.5957 52.764 19.0119 51.4643 19.0119 50.0285C19.0119 48.5927 19.5957 47.293 20.5389 46.3524C21.4821 45.4117 22.7854 44.8296 24.2251 44.8296Z" fill="white"/>
    </symbol>
    <symbol id="quotation-mark" viewBox="0 0 74 59">
        <path d="M24.1492 27.5912C27.0241 28.8637 29.2665 30.7725 30.8765 33.3176C32.4864 35.8627 33.2914 38.8706 33.2914 42.3412C33.2914 47.3157 31.7389 51.3647 28.634 54.4882C25.5291 57.4961 21.5618 59 16.7319 59C11.9021 59 7.87723 57.4382 4.65734 54.3147C1.55245 51.1912 0 47.2 0 42.3412C0 40.0275 0.28749 37.7137 0.862471 35.4C1.43745 33.0863 2.70241 29.6157 4.65734 24.9882L14.662 0H31.7389L24.1492 27.5912ZM64.8578 27.5912C67.7327 28.8637 69.9751 30.7725 71.5851 33.3176C73.195 35.8627 74 38.8706 74 42.3412C74 47.3157 72.4475 51.3647 69.3427 54.4882C66.2378 57.4961 62.2704 59 57.4406 59C52.6107 59 48.5859 57.4382 45.366 54.3147C42.2611 51.1912 40.7086 47.2 40.7086 42.3412C40.7086 40.0275 40.9961 37.7137 41.5711 35.4C42.1461 33.0863 43.411 29.6157 45.366 24.9882L55.3706 0H72.4476L64.8578 27.5912Z" fill="#DEE3E9"/>
    </symbol>
    <symbol id="recrangle" viewBox="0 0 34 34">
        <path d="M34 0V34H0L34 0Z" fill="#ED0644"/>
    </symbol>
    <symbol id="vk" viewBox="0 0 35 35">
        <path fill-rule="evenodd" clip-rule="evenodd" d="M2.4603 2.4603C0 4.92061 0 8.88038 0 16.8V18.2C0 26.1196 0 30.0794 2.4603 32.5397C4.92061 35 8.88038 35 16.8 35H18.2C26.1196 35 30.0794 35 32.5397 32.5397C35 30.0794 35 26.1196 35 18.2V16.8C35 8.88038 35 4.92061 32.5397 2.4603C30.0794 0 26.1196 0 18.2 0H16.8C8.88038 0 4.92061 0 2.4603 2.4603ZM5.90632 10.6459C6.09591 19.7459 10.6458 25.2147 18.6229 25.2147H19.0751V20.0084C22.0064 20.3001 24.2228 22.4438 25.1124 25.2147H29.2542C28.1167 21.073 25.127 18.7834 23.2603 17.9084C25.127 16.8292 27.752 14.2042 28.3791 10.6459H24.6165C23.7999 13.5334 21.3793 16.1584 19.0751 16.4063V10.6459H15.3125V20.7376C12.9792 20.1542 10.0334 17.3251 9.90216 10.6459H5.90632Z" fill="white"/>
    </symbol>
    <symbol id="black-vk" viewBox="0 0 35 35" width="35" height="35">
        <path fill-rule="evenodd" clip-rule="evenodd" d="M2.4603 2.4603C0 4.92061 0 8.88038 0 16.8V18.2C0 26.1196 0 30.0794 2.4603 32.5397C4.92061 35 8.88038 35 16.8 35H18.2C26.1196 35 30.0794 35 32.5397 32.5397C35 30.0794 35 26.1196 35 18.2V16.8C35 8.88038 35 4.92061 32.5397 2.4603C30.0794 0 26.1196 0 18.2 0H16.8C8.88038 0 4.92061 0 2.4603 2.4603ZM5.90632 10.6459C6.09591 19.7459 10.6458 25.2147 18.6229 25.2147H19.0751V20.0084C22.0064 20.3001 24.2228 22.4438 25.1124 25.2147H29.2542C28.1167 21.073 25.127 18.7834 23.2603 17.9084C25.127 16.8292 27.752 14.2042 28.3791 10.6459H24.6165C23.7999 13.5334 21.3793 16.1584 19.0751 16.4063V10.6459H15.3125V20.7376C12.9792 20.1542 10.0334 17.3251 9.90216 10.6459H5.90632Z" fill="#212121"/>
    </symbol>
    <symbol id="slogan" viewBox="0 0 1080 486" >
    <path d="M897.009 234.822C889.119 234.948 881.27 233.642 873.838 230.968C867.408 228.596 861.613 224.75 856.909 219.736C852.18 214.531 848.638 208.347 846.531 201.617C844.076 193.685 842.887 185.41 843.009 177.102V57.7277C842.889 49.4196 844.079 41.145 846.535 33.2134C848.641 26.4839 852.182 20.2998 856.909 15.0945C861.614 10.0805 867.409 6.23567 873.839 3.86275C888.866 -1.27558 905.154 -1.27558 920.18 3.86275C926.61 6.23637 932.404 10.0811 937.109 15.0945C941.838 20.2992 945.38 26.4834 947.486 33.2134C949.94 41.1456 951.129 49.4199 951.009 57.7277V177.102C951.128 185.41 949.937 193.685 947.482 201.617C945.377 208.346 941.837 214.531 937.109 219.736C932.406 224.749 926.612 228.594 920.184 230.968C912.751 233.643 904.901 234.948 897.009 234.822V234.822ZM898.509 34.2736C895.898 34.2283 893.298 34.6424 890.827 35.497C888.595 36.2977 886.593 37.6419 885 39.4102C883.267 41.4267 882.002 43.8085 881.3 46.3811C880.38 49.767 879.945 53.2683 880.009 56.7784V180.068C879.946 183.578 880.381 187.079 881.302 190.465C882.005 193.038 883.269 195.42 885.002 197.436C886.595 199.205 888.597 200.549 890.829 201.35C895.824 202.98 901.201 202.98 906.195 201.35C908.428 200.549 910.43 199.205 912.022 197.436C913.756 195.419 915.02 193.037 915.722 190.465C916.641 187.079 917.075 183.578 917.009 180.068V56.7784C917.073 53.2685 916.637 49.7676 915.716 46.3821C915.014 43.8095 913.75 41.4278 912.016 39.4112C910.424 37.6429 908.422 36.2986 906.189 35.498C903.719 34.6433 901.12 34.229 898.509 34.2736V34.2736ZM176.009 234.822C168.119 234.948 160.271 233.642 152.839 230.968C146.409 228.596 140.613 224.75 135.909 219.736C131.18 214.531 127.638 208.347 125.531 201.617C123.076 193.685 121.887 185.41 122.009 177.102V57.7277C121.888 49.4196 123.078 41.1449 125.535 33.2134C127.641 26.484 131.182 20.3002 135.909 15.0955C140.613 10.0807 146.409 6.23544 152.839 3.86275C160.271 1.19025 168.119 -0.115069 176.009 0.00898705C183.9 -0.115825 191.748 1.18951 199.18 3.86275C205.61 6.23637 211.405 10.0815 216.109 15.0955C220.839 20.2997 224.381 26.484 226.487 33.2144C228.943 41.1458 230.132 49.4201 230.009 57.7277V177.102C230.131 185.411 228.941 193.685 226.483 201.617C224.377 208.346 220.837 214.531 216.109 219.736C211.406 224.75 205.613 228.595 199.184 230.968C191.751 233.643 183.901 234.948 176.009 234.822V234.822ZM174.509 34.2736C171.897 34.2275 169.297 34.6412 166.826 35.496C164.594 36.299 162.592 37.6445 160.999 39.4133C159.266 41.4302 158.002 43.8123 157.299 46.3851C156.38 49.7698 155.945 53.2697 156.009 56.7784V180.068C155.946 183.578 156.381 187.079 157.302 190.465C158.004 193.038 159.269 195.42 161.002 197.436C162.596 199.204 164.597 200.548 166.829 201.35C171.824 202.98 177.202 202.98 182.196 201.35C184.429 200.548 186.43 199.204 188.023 197.436C189.755 195.418 191.019 193.037 191.723 190.465C192.643 187.079 193.076 183.578 193.009 180.068V56.7784C193.074 53.2685 192.638 49.7674 191.716 46.3821C191.013 43.8096 189.749 41.4278 188.016 39.4102C186.423 37.6425 184.422 36.2984 182.189 35.497C179.719 34.642 177.12 34.228 174.509 34.2736V34.2736ZM53.5093 234.822C45.6013 234.956 37.7342 233.65 30.2863 230.968C23.9073 228.604 18.1721 224.755 13.5473 219.736C8.89705 214.514 5.43681 208.329 3.40927 201.617C1.03592 193.669 -0.110806 185.401 0.0092734 177.102V57.7277C-0.110679 49.4289 1.03605 41.1609 3.40927 33.2134C5.43763 26.5015 8.89778 20.3178 13.5473 15.0955C18.1723 10.0761 23.9074 6.2276 30.2863 3.86275C37.7345 1.18183 45.6013 -0.123644 53.5093 0.00898705C61.4169 -0.12403 69.2835 1.18145 76.7313 3.86275C83.1114 6.22576 88.8472 10.0746 93.4713 15.0955C98.1207 20.3179 101.581 26.5016 103.609 33.2134C105.982 41.161 107.129 49.429 107.009 57.7277V80.0269H73.0823V55.437C73.0823 47.5763 71.3953 41.7009 68.0663 37.9741C65.0063 34.5477 60.4373 32.8093 54.4883 32.8093C48.5393 32.8093 43.9703 34.5427 40.9093 37.9701C37.5803 41.6969 35.8933 47.5763 35.8933 55.437V179.394C35.8933 187.341 37.5343 192.999 40.9093 196.695C43.9873 200.06 48.4293 201.696 54.4883 201.696C60.5473 201.696 64.9883 200.061 68.0663 196.695C71.4413 193 73.0823 187.342 73.0823 179.394V137.093H56.7713V104.297H107.009V177.102C107.129 185.401 105.983 193.669 103.609 201.617C101.581 208.329 98.1208 214.513 93.4713 219.736C88.8475 224.757 83.1116 228.606 76.7313 230.968C69.2837 233.651 61.417 234.956 53.5093 234.822V234.822ZM404.009 231.799H367.859V134.187H327.509V231.799H292.009V4.04012H327.509V101.651H367.859V4.04012H404.009V231.799ZM540.009 231.799H503.97L497.801 190.48H453.97L447.801 231.799H415.009L451.373 4.04012H503.646L540.009 231.799ZM476.009 43.3436L459.009 159.239H493.009L476.009 43.3436ZM1004.71 231.799H969.009V4.04012H1022.89C1027.2 4.01885 1031.51 4.28819 1035.79 4.84634C1039.51 5.33354 1043.18 6.14791 1046.77 7.28013C1049.95 8.29173 1053.01 9.65552 1055.89 11.3465C1061.25 14.4954 1065.7 18.9968 1068.81 24.4074C1070.44 27.2552 1071.76 30.2761 1072.73 33.4149C1073.81 36.8968 1074.58 40.4673 1075.04 44.0853C1075.56 48.1777 1075.81 52.3 1075.79 56.4256V74.3198C1075.79 98.0107 1068.15 113.119 1052.42 120.523C1056.61 122.233 1060.42 124.743 1063.66 127.915C1066.73 131.014 1069.2 134.657 1070.96 138.662C1074.43 146.382 1076.12 156.307 1076.12 169.003V204.142C1076.12 214.926 1076.4 223.223 1080.01 231.798H1043.66L1043.56 231.502C1041.66 225.801 1040.41 222.034 1040.41 203.817V168.026C1040.5 163.505 1040.04 158.989 1039.05 154.58C1038.33 151.306 1036.89 148.24 1034.82 145.616C1032.89 143.312 1030.38 141.583 1027.54 140.619C1024.16 139.498 1020.61 138.973 1017.04 139.068H1004.71V231.799ZM1005.01 36.2891V106.834H1018.82C1025.85 106.834 1030.93 105.121 1034.35 101.584C1038.16 97.654 1040.01 91.4249 1040.01 82.5534V59.9136C1040.01 51.6276 1038.61 45.7512 1035.71 41.9498C1032.81 38.1485 1028.34 36.2891 1022.03 36.2891H1005.01ZM585.709 231.799H550.009V4.04012H603.887C608.2 4.01985 612.51 4.28919 616.787 4.84634C620.511 5.33258 624.184 6.14696 627.766 7.28013C630.947 8.29233 634.006 9.6561 636.889 11.3465C639.562 12.9271 642.025 14.8442 644.217 17.0516C646.385 19.2538 648.265 21.726 649.81 24.4084C651.443 27.2558 652.758 30.2767 653.73 33.4159C654.806 36.8983 655.578 40.4687 656.037 44.0863C656.556 48.1788 656.809 52.301 656.793 56.4266V74.3198C656.793 98.0107 649.149 113.119 633.425 120.523C641.742 123.861 648.409 130.383 651.966 138.663C655.433 146.39 657.119 156.315 657.119 169.004V204.143C657.119 214.935 657.398 223.236 661.012 231.799H624.663L624.563 231.497C622.663 225.813 621.416 222.059 621.416 203.813V168.026C621.502 163.505 621.043 158.989 620.047 154.58C619.334 151.306 617.888 148.24 615.818 145.616C612.111 141.149 606.464 139.066 598.047 139.066H585.709V231.799ZM586.009 36.2891V106.834H599.817C606.85 106.834 611.931 105.121 615.35 101.584C619.158 97.65 621.009 91.4249 621.009 82.5534V59.9136C621.009 51.6286 619.609 45.7522 616.714 41.9488C613.819 38.1455 609.343 36.2891 603.027 36.2891H586.009ZM731.121 231.799H675.009V4.04012H731.121C739.017 3.89828 746.877 5.1402 754.35 7.71046C760.632 9.93512 766.296 13.6409 770.868 18.5189C775.422 23.5819 778.793 29.608 780.734 36.1551C783.036 43.999 784.14 52.1501 784.009 60.3288V175.51C784.139 183.687 783.035 191.836 780.734 199.679C778.797 206.229 775.426 212.258 770.868 217.32C766.296 222.198 760.632 225.904 754.35 228.128C746.877 230.699 739.017 231.941 731.121 231.799V231.799ZM712.009 36.2891V199.55H731.975C737.927 199.55 742.259 197.921 745.219 194.57C746.901 192.579 748.117 190.232 748.776 187.703C749.657 184.324 750.072 180.839 750.009 177.346V58.4926C750.072 54.9996 749.657 51.5146 748.776 48.1356C748.117 45.6066 746.901 43.2596 745.219 41.2686C742.259 37.9177 737.928 36.2891 731.975 36.2891H712.009Z" fill="currentColor"/>
<path d="M476.009 485.823C468.119 485.949 460.27 484.644 452.838 481.97C446.409 479.596 440.614 475.751 435.909 470.737C431.18 465.532 427.638 459.348 425.531 452.617C423.077 444.686 421.888 436.412 422.009 428.104V308.729C421.889 300.421 423.08 292.147 425.535 284.215C427.64 277.485 431.181 271.3 435.909 266.095C440.612 261.081 446.406 257.236 452.834 254.862C467.86 249.724 484.149 249.724 499.175 254.862C505.606 257.235 511.403 261.08 516.109 266.095C520.838 271.3 524.379 277.484 526.486 284.214C528.941 292.146 530.13 300.421 530.009 308.729V428.104C530.128 436.412 528.938 444.686 526.482 452.617C524.376 459.348 520.834 465.532 516.105 470.737C511.402 475.751 505.608 479.596 499.18 481.97C491.748 484.644 483.899 485.949 476.009 485.823ZM475.509 283.259C472.897 283.212 470.297 283.626 467.826 284.482C465.593 285.283 463.592 286.627 461.999 288.396C460.265 290.413 459.001 292.795 458.299 295.367C457.38 298.753 456.946 302.254 457.009 305.764V429.053C456.946 432.563 457.382 436.064 458.302 439.45C459.004 442.022 460.268 444.404 462.002 446.42C463.595 448.189 465.596 449.534 467.829 450.335C472.824 451.965 478.201 451.965 483.196 450.335C485.429 449.534 487.43 448.189 489.023 446.42C490.756 444.404 492.02 442.022 492.723 439.45C493.641 436.064 494.074 432.563 494.009 429.053V305.764C494.071 302.254 493.636 298.753 492.716 295.367C492.013 292.795 490.749 290.413 489.016 288.396C487.423 286.627 485.422 285.283 483.189 284.482C480.719 283.626 478.12 283.212 475.509 283.259ZM176.009 485.823C168.119 485.95 160.27 484.645 152.839 481.97C146.409 479.596 140.614 475.751 135.909 470.737C131.18 465.532 127.638 459.348 125.531 452.617C123.076 444.686 121.888 436.412 122.009 428.104V308.729C121.889 300.421 123.079 292.147 125.535 284.215C127.641 277.485 131.181 271.3 135.909 266.095C140.612 261.081 146.406 257.236 152.834 254.862C160.267 252.187 168.117 250.882 176.009 251.01C183.9 250.883 191.748 252.188 199.18 254.863C205.609 257.237 211.404 261.081 216.109 266.095C220.838 271.3 224.38 277.484 226.487 284.214C228.942 292.146 230.13 300.421 230.009 308.729V428.104C230.129 436.412 228.939 444.686 226.483 452.617C224.377 459.348 220.834 465.533 216.105 470.737C211.402 475.751 205.608 479.596 199.18 481.97C191.748 484.645 183.899 485.95 176.009 485.823ZM174.509 283.259C171.897 283.212 169.297 283.626 166.826 284.482C164.593 285.283 162.592 286.627 160.999 288.396C159.266 290.413 158.002 292.795 157.299 295.367C156.379 298.753 155.945 302.254 156.009 305.764V429.053C155.946 432.563 156.381 436.064 157.302 439.45C158.005 442.022 159.269 444.404 161.002 446.42C162.595 448.189 164.596 449.534 166.829 450.335C171.824 451.965 177.201 451.965 182.196 450.335C184.429 449.534 186.43 448.189 188.023 446.42C189.756 444.404 191.021 442.022 191.723 439.45C192.641 436.064 193.074 432.563 193.009 429.053V305.764C193.071 302.254 192.636 298.753 191.716 295.367C191.014 292.795 189.749 290.413 188.016 288.396C186.423 286.627 184.422 285.283 182.189 284.482C179.719 283.626 177.12 283.212 174.509 283.259ZM53.509 485.823C45.6009 485.959 37.7336 484.653 30.286 481.97C23.9069 479.605 18.1718 475.757 13.547 470.737C8.89749 465.514 5.43736 459.33 3.40899 452.617C1.03414 444.67 -0.11262 436.403 0.00899396 428.104V308.729C-0.112532 300.43 1.03423 292.162 3.40899 284.215C5.43518 277.503 8.89367 271.319 13.542 266.096C18.167 261.077 23.9021 257.228 30.281 254.863C37.7302 252.18 45.5992 250.874 53.509 251.01C61.4174 250.875 69.285 252.18 76.733 254.863C83.1119 257.228 88.847 261.077 93.472 266.096C98.1217 271.318 101.582 277.503 103.609 284.215C105.984 292.162 107.13 300.43 107.009 308.729V331.027H73.082V306.438C73.1438 302.908 72.7061 299.388 71.782 295.984C71.0771 293.397 69.8074 291.002 68.066 288.974C66.4652 287.197 64.4536 285.847 62.21 285.043C59.7271 284.182 57.1135 283.766 54.488 283.814C51.8625 283.766 49.2489 284.182 46.766 285.043C44.5222 285.847 42.5102 287.197 40.909 288.974C39.1681 291.003 37.8986 293.398 37.193 295.984C36.269 299.388 35.8313 302.908 35.893 306.438V430.395C35.8292 433.907 36.267 437.41 37.193 440.797C37.8954 443.352 39.1662 445.712 40.909 447.698C42.5188 449.44 44.5309 450.753 46.766 451.521C49.256 452.348 51.8666 452.746 54.488 452.699C57.1094 452.746 59.72 452.348 62.21 451.521C64.4449 450.753 66.4567 449.44 68.066 447.698C69.8083 445.713 71.0791 443.355 71.782 440.801C72.7085 437.413 73.1463 433.908 73.082 430.395V388.088H56.771V355.299H107.009V428.104C107.131 436.403 105.984 444.67 103.609 452.617C101.582 459.329 98.1236 465.514 93.476 470.737C88.8505 475.756 83.1155 479.604 76.737 481.97C69.2878 484.654 61.4187 485.959 53.509 485.823ZM697.009 481.792H663.467V318.456L638.957 481.792H605.416L578.97 320.733V481.792H548.009V254.033H597.353C597.384 254.406 600.746 294.511 605.698 334.887C608.578 358.369 611.398 377.066 614.088 390.474C617.45 407.241 620.608 415.742 623.477 415.742C626.346 415.742 629.402 407.241 632.562 390.474C635.09 377.062 637.689 358.36 640.288 334.887C644.749 294.584 647.637 254.434 647.665 254.033H697.009V481.792ZM404.009 481.792H367.859V384.181H327.509V481.792H292.009V254.033H327.509V351.644H367.859V254.033H404.009V481.792ZM813.009 481.792H715.009V254.033H813.009V286.57H750.942V350.017H800.269V382.554H750.942V449.255H813.009V481.792Z" fill="currentColor"/>
</symbol>
</svg>