<svg display="none" xmlns="http://www.w3.org/2000/svg">
  >
  <symbol id="logo" viewBox="0 0 150 78">
    <path
      width="150"
      height="78"
      d="M34.1546 3.56447C34.9772 2.34568 35.9465 1.49446 37.0561 1.01727C38.1576 0.540071 39.2092 0.304697 40.1849 0.304697C40.3317 0.304697 40.9849 0.364345 42.1687 0.482032V7.26436C41.5816 7.02898 40.9285 6.9113 40.1849 6.9113C39.0318 6.9113 38.0189 7.15312 37.1512 7.63838C36.2851 8.12364 35.6239 8.82008 35.1529 9.7374C34.6901 10.6483 34.4546 11.7349 34.4546 12.9891V22.0623H26.7437V0.788342H34.1546V3.56285V3.56447ZM17.8055 55.982H25.3131V66.6931C25.3131 69.2161 25.6276 71.291 28.6162 71.291H28.6936H28.771C31.7596 71.291 32.0741 69.2161 32.0741 66.6931V55.982H39.5817V67.13C39.5817 69.724 39.0931 72.2373 38.0689 73.7721C36.2368 76.5176 31.8757 77.4639 28.7727 77.4639H28.6952H28.6178C25.5131 77.4639 21.1537 76.5176 19.3215 73.7721C18.2974 72.2373 17.8087 69.724 17.8087 67.13V55.982H17.8055ZM7.41411 58.7952C8.23665 57.5764 9.20595 56.7252 10.3156 56.248C12.3655 55.3613 13.3557 55.5064 15.4266 55.7128V62.4951C14.8395 62.2597 14.1847 62.142 13.4428 62.142C12.2897 62.142 11.2752 62.3838 10.4091 62.8691C9.54304 63.3527 8.88178 64.0508 8.41084 64.9697C7.94796 65.8806 7.71248 66.9672 7.71248 68.2214V77.2963H0.00161439V56.0207H7.4125V58.7952H7.41411ZM49.7102 47.0716C51.2892 47.0716 52.4714 46.5138 53.2649 45.4047C54.0648 44.2971 54.4616 42.8784 54.4616 41.1679C54.4616 39.48 54.0648 38.0774 53.2713 36.9683C52.4778 35.8591 51.2956 35.3094 49.7086 35.3094C48.1152 35.3094 46.9249 35.8591 46.133 36.9683C45.3395 38.0774 44.9428 39.4784 44.9428 41.1679C44.9428 42.8784 45.3395 44.2955 46.1395 45.4047C46.933 46.5122 48.1232 47.0716 49.7086 47.0716H49.7102ZM49.7102 52.6223C47.0668 52.6223 44.7815 52.1451 42.8574 51.1842C40.9333 50.2298 39.4721 48.8853 38.4657 47.1538C37.4673 45.4208 36.9674 43.4314 36.9674 41.1711C36.9674 37.7437 38.098 34.9901 40.3607 32.8976C42.6155 30.805 45.7362 29.7619 49.7102 29.7619C52.3327 29.7619 54.6084 30.2391 56.5325 31.1935C58.4501 32.1479 59.9194 33.4925 60.9241 35.2175C61.9305 36.9505 62.437 38.9319 62.437 41.1711C62.437 43.433 61.937 45.4224 60.9387 47.1538C59.9323 48.8869 58.4711 50.2298 56.547 51.1842C54.6229 52.1467 52.3391 52.6223 49.7102 52.6223ZM65.4723 51.8291V36.1041H62.6966V30.5535H65.4723V24.6949H73.1832V30.5535H76.9572V36.1041H73.1832V51.8291H65.4723ZM79.6296 30.5551H87.3405V51.8291H79.6296V30.5551ZM102.515 47.0732C104.094 47.0732 105.277 46.5154 106.07 45.4063C106.872 44.2987 107.267 42.88 107.267 41.1695C107.267 39.4816 106.87 38.079 106.077 36.9699C105.285 35.8623 104.101 35.311 102.514 35.311C100.92 35.311 99.7301 35.8607 98.9382 36.9699C98.1447 38.079 97.748 39.48 97.748 41.1695C97.748 42.88 98.1447 44.2971 98.9447 45.4063C99.7382 46.5138 100.928 47.0732 102.514 47.0732H102.515ZM102.515 52.6239C99.8721 52.6239 97.5883 52.1467 95.6626 51.1858C93.7385 50.2314 92.2773 48.8869 91.2709 47.1555C90.2726 45.4224 89.7726 43.433 89.7726 41.1728C89.7726 37.7453 90.9048 34.9918 93.166 32.8992C95.4207 30.8066 98.5415 29.7636 102.514 29.7636C105.136 29.7636 107.412 30.2408 109.338 31.1951C111.254 32.1495 112.723 33.4941 113.729 35.2191C114.736 36.9521 115.242 38.9335 115.242 41.1728C115.242 43.4346 114.742 45.424 113.744 47.1555C112.737 48.8885 111.276 50.2314 109.352 51.1858C107.428 52.1483 105.144 52.6239 102.514 52.6239H102.515ZM125.372 33.0233C127.04 30.8501 129.338 29.7636 132.291 29.7636C135.412 29.7636 137.462 30.7631 138.423 32.7525C139.386 34.7499 139.87 36.9666 139.87 39.4107V51.8323H132.159V40.1087C132.159 37.4438 131.248 36.1074 129.427 36.1074C128.259 36.1074 127.29 36.5765 126.525 37.5083C125.755 38.4482 125.372 39.725 125.372 41.3469V51.8307H117.661V30.5567H125.372V33.0233ZM141.979 48.6161C141.979 47.9325 142.155 47.2876 142.5 46.6702C142.846 46.0543 143.331 45.5546 143.941 45.1806C144.557 44.7985 145.241 44.6083 145.989 44.6083C147.179 44.6083 148.148 45.0113 148.89 45.827C149.632 46.6412 150 47.5665 150 48.6161C150 49.643 149.632 50.5764 148.89 51.3906C148.157 52.2128 147.187 52.6239 145.989 52.6239C144.844 52.6239 143.889 52.2208 143.125 51.4051C142.36 50.5893 141.979 49.6575 141.979 48.6161V48.6161ZM7.71409 29.9232V30.5567V32.8025C9.54303 30.776 11.7752 29.7636 14.4121 29.7636C17.4604 29.7636 19.5893 30.8501 20.8021 33.0233C21.7279 31.8561 22.7181 31.0194 23.7761 30.5197C24.8261 30.0134 26.0825 29.7636 27.5372 29.7636C29.4016 29.7636 30.879 30.1747 31.9725 30.9968C33.066 31.819 33.8159 32.8025 34.2336 33.9632C34.653 35.1223 34.8578 36.275 34.8578 37.4277V51.8307H27.1469V39.4091C27.1469 37.2069 26.3389 36.1058 24.7164 36.1058C23.8197 36.1058 23.0278 36.4508 22.3294 37.1472C21.6327 37.8437 21.286 38.9319 21.286 40.4215V51.8307H13.5751V39.4091C13.5751 37.2069 12.767 36.1058 11.1591 36.1058C10.2559 36.1058 9.45593 36.4508 8.75758 37.1408C8.05923 37.8372 7.71409 38.9254 7.71409 40.4215V51.8307H0.00322878V32.8621V32.4446L7.71409 29.9232V29.9232ZM56.0276 17.4032C57.6066 17.4032 58.7888 16.8454 59.5823 15.7362C60.3822 14.6271 60.7806 13.2116 60.7806 11.4995C60.7806 9.81156 60.3839 8.40899 59.5903 7.29982C58.7968 6.19066 57.6146 5.64092 56.0276 5.64092C54.4342 5.64092 53.2439 6.19066 52.4504 7.29982C51.6569 8.40737 51.2601 9.80994 51.2601 11.4995C51.2601 13.21 51.6569 14.6271 52.4569 15.7362C53.2504 16.8438 54.4406 17.4032 56.026 17.4032H56.0276ZM55.6777 22.8603C53.0342 22.8603 51.0989 22.4766 49.1748 21.5142C47.2507 20.5598 45.7895 19.2169 44.7831 17.4838C43.7847 15.7507 43.2848 13.7613 43.2848 11.5011C43.2848 8.07366 44.4153 5.3201 46.6781 3.22753C48.9328 1.13496 52.0537 0.0935051 56.0276 0.0935051C58.6501 0.0935051 60.9258 0.5707 62.8498 1.52509C64.7659 2.47949 66.2351 3.82402 67.2415 5.54903C68.2479 7.28209 68.7544 9.26343 68.7544 11.5027C68.7544 13.7646 68.2544 15.7539 67.2561 17.4854C66.2497 19.2185 64.7885 20.5614 62.8644 21.5158C60.9403 22.4782 58.3065 22.8619 55.6777 22.8619V22.8603ZM7.4125 0.793179V3.38391C8.41083 2.14416 9.45433 1.27037 10.5414 0.764159C11.6365 0.257943 12.9283 0 14.4186 0C15.9975 0 17.4071 0.301472 18.6635 0.896356C19.9118 1.49769 20.9553 2.31344 21.7843 3.34844C22.6068 4.38344 23.2391 5.60223 23.6713 6.98868C24.1052 8.37674 24.3245 9.85186 24.3245 11.4076C24.3245 13.3535 23.9503 15.2026 23.2084 16.9582C22.4585 18.7123 21.3359 20.1374 19.8296 21.224C18.3313 22.3186 16.5249 22.8619 14.417 22.8619C11.7284 22.8619 9.49625 21.8785 7.71087 19.9036V25.846L0 28.3674V28.3336V0.79479H7.41088L7.4125 0.793179ZM12.7896 16.5181C14.2428 16.5181 15.3814 16.0329 16.1975 15.064C17.0136 14.095 17.4168 12.8763 17.4168 11.4076C17.4168 9.95504 17.0136 8.7427 16.1975 7.78186C15.3814 6.8194 14.2444 6.34382 12.7896 6.34382C11.2107 6.34382 10.043 6.85809 9.29305 7.8931C8.54309 8.9281 8.16892 10.0953 8.16892 11.4092C8.16892 12.7457 8.54309 13.9274 9.29305 14.9624C10.0495 15.9974 11.2091 16.5181 12.7896 16.5181Z"
      fill="currentColor"
    />
  </symbol>

  <symbol width="96" height="96" id="arrow" viewBox="0 0 96 96">
    <g filter="url(#filter0_d_478_2519)">
      <circle cx="38" cy="38" r="28" fill="currentColor" />
    </g>
    <path d="M35.5 33L41 38.5L35.5 44" stroke="#212121" stroke-width="2" />
  </symbol>
  <symbol id="banner-alpha-bank" viewBox="0 0 123 26" width="123" height="26">
    <path
      d="M118.781 5.59414L114.584 10.2614V5.59414H111.547V17.3763H114.584V12.4175L119.077 17.3763H123L117.475 11.2029L122.6 5.59414H118.781Z"
      fill="#EF3124"
    />
    <path
      d="M106.193 9.98836H101.996V5.59414H98.9571V17.3763H101.996V12.7308H106.193V17.3763H109.23V5.59414H106.193V9.98836Z"
      fill="#EF3124"
    />
    <path
      d="M18.033 11.9769C17.9604 14.1749 17.6751 14.6138 16.431 14.6138V17.3763H16.8952C19.9997 17.3763 20.7459 15.7848 20.8607 12.2483L20.9873 8.33487H23.8977V17.3763H26.9347V5.59414H18.2457L18.0347 11.9769H18.033Z"
      fill="#EF3124"
    />
    <path
      d="M34.4825 9.17251H32.2896V5.59414H29.2526V17.3763H34.5247C37.8352 17.3763 39.017 15.242 39.017 13.2317C39.017 10.6367 37.3727 9.17083 34.4825 9.17083M34.2513 14.7796H32.2896V11.7859H34.2513C35.3064 11.7859 35.9377 12.2466 35.9377 13.23C35.9377 14.2971 35.3266 14.7796 34.2513 14.7796Z"
      fill="#EF3124"
    />
    <path
      d="M48.9079 5.32107V0.946949H45.8709V5.32107C42.3916 5.61424 40.0501 8.06348 40.0501 11.4743C40.0501 14.8852 42.3916 17.3562 45.8709 17.6477V22.0855H48.9079V17.6477C52.3873 17.3763 54.7288 14.9053 54.7288 11.4743C54.7288 8.04338 52.3873 5.59246 48.9079 5.32107ZM45.8709 14.8031C44.1845 14.5719 43.1294 13.3171 43.1294 11.476C43.1294 9.63488 44.1845 8.37843 45.8709 8.14892V14.8048V14.8031ZM48.9079 14.8031V8.14724C50.5944 8.37676 51.6495 9.63321 51.6495 11.4743C51.6495 13.3154 50.5944 14.5719 48.9079 14.8014"
      fill="#EF3124"
    />
    <path
      d="M66.1188 13.756V9.80073C66.1188 6.91257 64.2635 5.09156 61.1421 5.09156C58.0207 5.09156 56.2076 7.01811 56.059 9.02676H59.1383C59.2429 8.58784 59.7072 7.83397 61.1421 7.83397C62.3238 7.83397 63.0818 8.37843 63.0818 9.80073H60.0651C57.3657 9.80073 55.7619 11.2029 55.7619 13.5466C55.7619 15.8903 57.5159 17.6695 60.0431 17.6695C61.8967 17.6695 62.9265 16.8 63.3756 16.1416C63.7757 16.9374 64.6619 17.3763 65.8217 17.3763H66.8768V14.6557C66.3282 14.6557 66.1171 14.4044 66.1171 13.756M63.0801 12.9821C63.0801 14.3424 62.1094 15.1164 60.845 15.1164C59.7477 15.1164 58.8833 14.7193 58.8833 13.5466C58.8833 12.3739 59.8321 12.2081 60.6542 12.2081H63.0801V12.9821Z"
      fill="#EF3124"
    />
    <path
      d="M79.1329 7.26773H75.738V3.94065H83.6049V0.946949H72.5524V17.3763H79.1329C82.7811 17.3763 84.8693 15.5771 84.8693 12.2701C84.8693 9.1524 82.7811 7.26773 79.1329 7.26773ZM78.9844 14.4044H75.7363V10.1341H78.9844C80.6708 10.1341 81.6213 10.9081 81.6213 12.2684C81.6213 13.6287 80.6725 14.4027 78.9844 14.4027"
      fill="#EF3124"
    />
    <path
      d="M96.4907 13.756V9.80073C96.4907 6.91257 94.6354 5.09156 91.514 5.09156C88.3925 5.09156 86.5794 7.01811 86.4309 9.02676H89.5101C89.6148 8.58784 90.079 7.83397 91.514 7.83397C92.6957 7.83397 93.4537 8.37843 93.4537 9.80073H90.4369C87.7375 9.80073 86.1338 11.2029 86.1338 13.5466C86.1338 15.8903 87.8878 17.6695 90.415 17.6695C92.2686 17.6695 93.2984 16.8 93.7474 16.1416C94.1475 16.9374 95.0338 17.3763 96.1936 17.3763H97.2487V14.6557C96.7 14.6557 96.489 14.4044 96.489 13.756M93.452 12.9821C93.452 14.3424 92.4813 15.1164 91.2168 15.1164C90.1195 15.1164 89.2552 14.7193 89.2552 13.5466C89.2552 12.3739 90.2039 12.2081 91.0261 12.2081H93.452V12.9821Z"
      fill="#EF3124"
    />
    <path d="M16.2402 22.4004H0V25.7493H16.2402V22.4004Z" fill="#EF3124" />
    <path
      d="M11.0727 3.20186C10.6085 1.83149 10.075 0.749268 8.24671 0.749268C6.41842 0.749268 5.84951 1.82646 5.36331 3.20186L0.337634 17.3763H3.67008L4.82985 14.0073H11.2415L12.3169 17.3763H15.8603L11.0727 3.20186ZM5.80055 11.161L8.07789 4.44323H8.1623L10.313 11.161H5.79886H5.80055Z"
      fill="#EF3124"
    />
  </symbol>
  <symbol id="banner-ivi" viewBox="0 0 79 38" width="79" height="38">
    <path
      d="M26.671 21.089C25.4262 31.9382 22.8346 33.9975 11.9848 32.7532C1.13605 31.5083 -0.922185 28.9162 0.321134 18.067C1.56597 7.21769 4.15807 5.15945 15.0074 6.40429C25.8567 7.64813 27.9159 10.2402 26.671 21.0895V21.089Z"
      fill="#F40846"
    />
    <path
      d="M17.951 13.0493C16.857 13.0493 15.9815 13.4869 15.1066 14.7756L11.7031 19.9053L12.0189 15.918C12.1164 14.4107 11.1682 13.0493 9.49044 13.0493C7.93431 13.0493 6.96193 14.0948 6.86456 15.4321L6.32968 22.7744C6.20807 24.598 7.15621 25.643 8.66343 25.643C10.1706 25.643 11.1188 24.549 11.8242 23.552L15.1061 18.5681L14.8144 22.7739C14.6686 24.4759 15.5925 25.6425 17.2698 25.6425C18.826 25.6425 19.8467 24.7186 19.9441 23.333L20.479 15.918C20.6006 14.4592 19.8962 13.0493 17.951 13.0493Z"
      fill="white"
    />
    <path
      d="M12.0138 15.9216L11.698 19.9089L11.8191 23.5556C11.1137 24.5527 10.1655 25.6467 8.65831 25.6467C7.1511 25.6467 6.20295 24.6016 6.32455 22.7781L6.85945 15.4357C6.95682 14.0985 7.92919 13.053 9.48533 13.053C11.1631 13.053 12.1113 14.4144 12.0138 15.9216Z"
      fill="white"
    />
    <path
      d="M12.0242 15.7103C12.0242 14.3197 11.125 13.0486 9.47142 13.0486C7.81785 13.0486 6.85864 14.2884 6.85864 15.6255C6.85864 17.0601 7.93491 18.1783 9.44212 18.1783C10.9493 18.1783 12.0242 17.1443 12.0242 15.7103Z"
      fill="white"
    />
    <path
      d="M75.9868 13.0295C74.9038 13.0295 74.0032 13.4625 73.1484 14.7623L69.7404 19.9031L70.0481 15.8911C70.1622 14.3864 69.2161 13.0301 67.5292 13.0301C65.9564 13.0301 64.9876 14.0902 64.8963 15.4239L64.3604 22.7531C64.2352 24.5994 65.1808 25.6252 66.7315 25.6252C68.2821 25.6252 69.1706 24.5651 69.8544 23.5392L73.1484 18.5584L72.8522 22.7531C72.727 24.4743 73.6272 25.6252 75.3141 25.6252C76.8759 25.6252 77.879 24.7018 77.9814 23.3112L78.5284 15.8906C78.6308 14.4545 77.9244 13.0295 75.9868 13.0295ZM63.0156 22.0911C63.0156 20.4153 61.739 19.3324 60.0522 19.1159C61.6249 18.7855 63.0045 17.748 63.0045 16.0612C63.0045 14.1917 61.5568 13.132 58.9012 13.1431H53.5212C51.0366 13.1431 50.1131 14.1462 49.9194 16.8817L49.5999 21.4639C49.3835 24.5414 50.261 25.5102 53.2931 25.5102H58.445C61.4085 25.5102 63.0156 24.2911 63.0156 22.0911ZM57.9318 21.7605C57.9318 22.8207 57.1113 23.3222 55.7434 23.3222L54.2932 23.3107C54.2932 23.3107 54.5207 21.8181 54.6671 20.3245H55.9942C57.134 20.3245 57.9318 20.7917 57.9318 21.7605ZM57.9888 16.7454C57.9888 17.6572 57.2481 18.2041 55.9372 18.2041H54.8462C54.8462 18.2041 54.9552 16.5415 54.8841 15.3431H56.085C57.2819 15.3431 57.9883 15.8563 57.9883 16.7448L57.9888 16.7454Z"
      fill="#F40846"
    />
    <path
      d="M45.8657 13.0493C44.7717 13.0493 43.8963 13.4868 43.0213 14.7756L39.6178 19.9053L39.9337 15.918C40.0311 14.4107 39.083 13.0493 37.4052 13.0493C35.849 13.0493 34.8767 14.0948 34.7793 15.4321L34.2444 22.7744C34.1228 24.598 35.0709 25.643 36.5782 25.643C38.0854 25.643 39.0335 24.549 39.7389 23.552L43.0208 18.5681L42.7291 22.7739C42.5833 24.4759 43.5072 25.6425 45.1845 25.6425C46.7407 25.6425 47.7615 24.7186 47.8588 23.333L48.3938 15.918C48.5153 14.4592 47.8109 13.0493 45.8657 13.0493Z"
      fill="#F40846"
    />
  </symbol>
  <symbol id="banner-megafone" viewBox="0 0 119 23">
    <path
      d="M11.8609 0.290084V11.637C11.8609 12.1676 11.4694 12.535 10.9997 12.535H9.7079C9.62961 12.535 9.59046 12.6166 9.59046 12.6574V22.1676C9.90362 22.1676 10.2168 22.2493 10.5691 22.2493C16.4016 22.2493 21.1382 17.3105 21.1382 11.2289C21.1382 5.63702 17.1063 0.943145 11.8609 0.290084ZM11.626 17.2697C10.8822 17.2697 10.3342 16.6166 10.3342 15.9227C10.3342 15.1472 10.9605 14.5758 11.626 14.5758C12.3697 14.5758 12.9178 15.2289 12.9178 15.9227C12.9961 16.6574 12.3697 17.2697 11.626 17.2697ZM14.7184 17.2697C13.9747 17.2697 13.4266 16.6166 13.4266 15.9227C13.4266 15.1472 14.053 14.5758 14.7184 14.5758C15.4622 14.5758 16.0102 15.2289 16.0102 15.9227C16.0102 16.6166 15.5013 17.2697 14.7184 17.2697ZM17.85 17.2697C17.1062 17.2697 16.5582 16.6166 16.5582 15.9227C16.5582 15.1472 17.1845 14.5758 17.85 14.5758C18.5938 14.5758 19.1418 15.2289 19.1418 15.9227C19.1418 16.6166 18.5938 17.2697 17.85 17.2697Z"
      fill="#00B956"
    />
    <path
      d="M10.5691 0.249268C4.73651 0.249268 0 5.18804 0 11.2697C0 16.6166 3.56217 20.984 8.33783 22.0044V12.086C8.33783 11.637 8.72928 11.2697 9.12072 11.188H10.4125C10.4908 11.188 10.5299 11.1064 10.5299 11.0656L10.5691 0.249268ZM8.53355 9.31049C7.7898 9.31049 7.24178 8.65743 7.24178 7.96355C7.24178 7.18804 7.86809 6.61661 8.53355 6.61661C9.2773 6.61661 9.82533 7.26968 9.82533 7.96355C9.82533 8.65743 9.23816 9.31049 8.53355 9.31049Z"
      fill="#00B956"
    />
    <path
      d="M116.377 6.24927V10.4125H111.054V6.24927H108.353V17.2697H111.054V12.8207H116.377V17.2697H119V6.24927H116.377ZM72.3786 7.51457C71.948 6.53498 71.0868 6.00437 70.2257 6.00437C69.3645 6.00437 68.4641 6.53498 68.0727 7.51457L63.8059 17.3105H66.6243L67.5638 14.984H73.0441L73.9836 17.3105H76.802L72.3786 7.51457ZM68.3076 12.7799L69.9125 8.73906C69.9908 8.61661 70.0299 8.61661 70.1082 8.61661C70.1865 8.61661 70.3039 8.61661 70.3039 8.73906L71.9089 12.7799H68.3076ZM40.9062 4.29008C39.6536 4.29008 38.8707 4.98396 38.2836 6.37172L34.878 14.6574L31.4332 6.3309C30.8852 4.98396 30.0632 4.24927 28.8105 4.24927C27.6362 4.24927 26.4618 5.06559 26.4618 6.98396V17.2289H29.0845V7.35131L32.5684 15.5554C32.999 16.7391 33.8211 17.4329 34.878 17.4329C36.0132 17.4329 36.7569 16.7391 37.1875 15.5554L40.6714 7.35131V17.3513H43.2941V7.10641C43.2549 5.18804 42.0806 4.29008 40.9062 4.29008ZM47.9132 14.9431C47.7957 14.9431 47.6391 14.8207 47.6391 14.6574V12.6982H54.2155V10.4534H47.6391V8.77988C47.6391 8.65743 47.7566 8.49417 47.9132 8.49417H54.4503V6.16763H46.6214C45.6819 6.16763 45.0556 6.94314 45.0556 7.80029V15.5146C45.0556 16.3309 45.7211 17.1472 46.6214 17.1472H54.4503V14.8207H47.9132V14.9431ZM58.8737 17.2697V8.86151C58.8737 8.73906 58.9911 8.5758 59.1477 8.5758H65.6849V6.24927H57.8559C56.9165 6.24927 56.2901 7.02478 56.2901 7.88192V17.2289L58.8737 17.2697ZM106.63 11.8003C106.63 7.96355 105.025 6.16763 101.033 6.16763H100.093C96.1003 6.16763 94.4954 8.00437 94.4954 11.8003C94.4954 15.5554 96.1003 17.4329 100.093 17.4329H100.954C105.025 17.3513 106.63 15.5554 106.63 11.8003ZM100.954 15.1064H100.093C97.9401 15.1064 97.0398 14.086 97.0398 11.8003C97.0398 9.59621 97.7836 8.49417 100.093 8.49417H100.954C103.186 8.49417 104.008 9.59621 104.008 11.8003C104.008 14.0452 103.186 15.1064 100.954 15.1064ZM87.1753 4.53498H81.9299C78.0155 4.53498 76.4497 6.61661 76.4497 10.1676C76.4497 10.7391 76.528 11.2697 76.5671 11.7187C76.9977 14.2493 78.4461 15.8003 82.0865 15.8003H83.2609V17.2289H85.8836V15.8003H87.0188C90.6984 15.8003 92.1467 14.2493 92.5382 11.7187C92.6164 11.2697 92.6556 10.7391 92.6556 10.1676C92.6165 6.61661 91.0115 4.53498 87.1753 4.53498ZM82.0082 13.5146C80.2076 13.5146 79.5813 12.8207 79.1898 11.6778C79.0724 11.2697 79.0724 10.6982 79.0724 10.1268C79.0724 7.80029 80.1293 6.8207 81.6168 6.8207H83.2217V13.5146H82.0082ZM89.9155 11.8003C89.524 12.9023 88.8586 13.637 87.097 13.637H85.9227V6.90233H87.5276C89.0151 6.90233 90.072 7.88192 90.072 10.2085C90.0329 10.8207 90.0329 11.3105 89.9155 11.8003Z"
      fill="#00B956"
    />
  </symbol>
  <symbol id="banner-mts" viewBox="0 0 62 17">
    <path
      d="M1.87879 3.32167C3.01254 1.39093 4.37304 0.249268 5.52299 0.249268C6.67293 0.249268 8.03343 1.39093 9.15099 3.32167C10.3171 5.31957 11.0136 7.78757 11.0136 9.93657C11.0136 13.0761 9.31295 16.2493 5.50679 16.2493C1.70063 16.2493 0 13.0761 0 9.93657C0 7.78757 0.712644 5.31957 1.87879 3.32167Z"
      fill="#E30613"
    />
    <path
      d="M26.8699 1.10553L24.6672 9.63439L22.4645 1.10553H15.1761V15.393H19.3062V3.77499L22.3025 15.393H27.0481L30.0444 3.7582V15.393H34.1745V1.10553H26.8699Z"
      fill="#E30613"
    />
    <path d="M39.1306 4.96702H35.2758V1.10553H47.1316V4.96702H43.2607V15.393H39.1306V4.96702Z" fill="#E30613" />
    <path
      d="M62 4.96702H55.9425C53.3673 4.96702 51.6667 5.924 51.6667 8.2241C51.6667 10.5578 53.3673 11.5148 55.9425 11.5148H62V15.3763H55.9425C50.3872 15.3763 47.407 12.5053 47.407 8.24089C47.407 3.97646 50.371 1.10553 55.9425 1.10553H62V4.96702Z"
      fill="#E30613"
    />
  </symbol>
  <symbol id="banner-tinkoff" viewBox="0 0 140 13">
    <path
      d="M9.61907 13.2282V4.56982H15.1853V1.41912H0V4.56982H5.56602V13.2282H9.61907ZM20.7252 8.2912V1.41912H16.8074V13.2282H20.2659L27.0209 6.35608V13.2282H30.9389V1.41912H27.4802L20.7252 8.2912ZM44.1197 8.83704V13.2282H48.0381V1.41912H44.1197V5.73582H37.8239V1.41912H33.9061V13.2282H37.8239V8.83704H44.1197ZM58.9485 13.2282C59.8399 13.2282 60.6505 13.1538 61.4073 12.9553C63.435 12.4344 64.7575 10.9209 64.7575 8.86178C64.7575 6.90192 63.6235 5.53749 61.8137 4.91711C60.9469 4.61951 59.9219 4.59466 58.9485 4.59466H54.9224V1.41912H51.0052V13.2282H58.9485ZM58.2726 7.37333C58.8138 7.37333 59.3268 7.37333 59.786 7.52219C60.435 7.72062 60.8134 8.21678 60.8134 8.8122C60.8134 9.43246 60.435 9.95346 59.813 10.2015C59.3807 10.3752 58.9485 10.3752 58.2726 10.3752H54.9224V7.37333H58.2726ZM71.7823 8.76261L76.4574 13.2282H81.6713L75.1607 7.07551L81.4288 1.41912H76.5113L71.7823 5.85993H70.7023V1.41912H66.7851V13.2282H70.7023V8.76261H71.7823ZM89.7329 1.09667C84.4639 1.09667 81.3035 3.82554 81.3035 7.34838C81.3035 10.8714 84.4639 13.6004 89.7329 13.6004C94.9761 13.6004 98.1377 10.8714 98.1377 7.34838C98.1377 3.82554 94.9761 1.09667 89.7329 1.09667ZM89.7329 10.7226C87.1125 10.7226 85.4385 9.28361 85.4385 7.34838C85.4385 5.41347 87.1125 3.99924 89.7329 3.99924C92.3275 3.99924 94.0296 5.41347 94.0296 7.34838C94.0296 9.28361 92.3275 10.7226 89.7329 10.7226ZM111.186 0.749268H107.268V1.94C102.35 2.03928 99.404 3.94955 99.404 7.32364C99.404 10.6976 102.35 12.4592 107.268 12.5584V13.7493H111.186V12.5584C116.129 12.4592 119.075 10.6976 119.075 7.32364C119.075 3.94955 116.129 2.03928 111.186 1.94V0.749268ZM107.268 10.0279C104.565 9.92861 103.376 8.91147 103.376 7.32364C103.376 5.73582 104.565 4.59466 107.268 4.4955V10.0279ZM111.186 4.4955C113.915 4.59466 115.076 5.73582 115.076 7.32364C115.076 8.91147 113.915 9.92861 111.186 10.0279V4.4955ZM132.109 0.749268H128.191V1.94C123.274 2.03928 120.33 3.94955 120.33 7.32364C120.33 10.6976 123.274 12.4592 128.191 12.5584V13.7493H132.109V12.5584C137.055 12.4592 140 10.6976 140 7.32364C140 3.94955 137.055 2.03928 132.109 1.94V0.749268ZM128.191 10.0279C125.49 9.92861 124.301 8.91147 124.301 7.32364C124.301 5.73582 125.49 4.59466 128.191 4.4955V10.0279ZM132.109 4.4955C134.839 4.59466 136.001 5.73582 136.001 7.32364C136.001 8.91147 134.839 9.92861 132.109 10.0279V4.4955Z"
      fill="#212121"
    />
  </symbol>
  <symbol id="banner-yandex" viewBox="0 0 64 20">
    <path
      fill-rule="evenodd"
      clip-rule="evenodd"
      d="M7.8034 17.0616H10.5658V0.749268H6.53308C2.50032 0.749268 0.362949 2.87876 0.362949 6.0213C0.362949 8.52293 1.53245 10.0115 3.60933 11.5414L0 17.0616H3.00441L7.03718 10.9005L5.64587 9.92881C3.95211 8.75036 3.12539 7.84067 3.12539 5.87658C3.12539 4.13991 4.31506 2.96145 6.57341 2.96145H7.8034V17.0616ZM61.1771 17.289C62.4272 17.289 63.3346 17.0616 64 16.5654V14.2912C63.3144 14.7874 62.4877 15.0975 61.3384 15.0975C59.4026 15.0975 58.5961 13.5469 58.5961 11.1073C58.5961 8.66766 59.5841 7.24111 61.3585 7.24111C62.4071 7.24111 63.4354 7.61325 63.9798 7.96472V5.58713C63.4153 5.25634 62.4071 5.02892 61.0561 5.02892C57.5879 5.02892 55.7732 7.59257 55.7732 11.1693C55.7732 15.1181 57.5274 17.289 61.1771 17.289ZM44.1588 16.2553V13.981C43.3119 14.5599 41.9004 15.0768 40.5696 15.0768C38.5734 15.0768 37.8274 14.1051 37.7064 12.141H44.2798V10.6731C44.2798 6.55884 42.5255 5.02892 39.8034 5.02892C36.4965 5.02892 34.9036 7.63392 34.9036 11.19C34.9036 15.3042 36.8797 17.289 40.3478 17.289C42.0819 17.289 43.3724 16.8135 44.1588 16.2553ZM19.2161 5.25634V9.92881H15.5866V5.25634H12.8645V17.0616H15.5866V12.141H19.2161V17.0616H21.9382V5.25634H19.2161ZM34.218 14.8494H33.0082V5.25634H25.0636V6.2694C25.0636 9.16385 24.8822 12.8853 23.9143 14.8494H23.0674V19.7493H25.5879V17.0616H31.6975V19.7493H34.218V14.8494ZM52.8494 17.0616L48.8166 11.2727V17.0616H46.0945V5.25634H48.8166V10.6938L52.6679 5.25634H55.4102L51.5589 10.6938L55.9345 17.0409H52.8494V17.0616ZM39.7429 7.24111C41.0939 7.24111 41.4972 8.39889 41.4972 9.86679V10.0942H37.7064C37.7669 8.21281 38.4323 7.24111 39.7429 7.24111ZM30.2861 14.87H26.4348C27.1808 13.092 27.4026 9.86679 27.4026 7.84067V7.4892H30.2861V14.87Z"
      fill="black"
    />
  </symbol>
  <symbol id="key" viewBox="0 0 12 12">
    <path
      d="M0 12L0.220024 9.87601L5.05456 4.95601C4.80789 4.29685 4.75389 3.58112 4.89887 2.89242C5.04386 2.20371 5.38183 1.57048 5.87332 1.06668C6.20368 0.728137 6.59844 0.459104 7.03436 0.275417C7.47028 0.0917299 7.93855 -0.00289917 8.4116 -0.00289917C8.88465 -0.00289917 9.35292 0.0917299 9.78884 0.275417C10.2248 0.459104 10.6195 0.728137 10.9499 1.06668C11.6229 1.75809 11.9995 2.68484 11.9995 3.64968C11.9995 4.61452 11.6229 5.54127 10.9499 6.23268C10.4652 6.72969 9.84534 7.07362 9.1671 7.22187C8.48885 7.37011 7.78201 7.31615 7.13413 7.06668L5.52728 8.70201L4.26047 8.81934L4.14513 10.1113L2.87832 10.228L2.76297 11.52L0 12ZM9.001 2.00001C8.76963 2.00012 8.54544 2.08043 8.36665 2.22728C8.18786 2.37412 8.06552 2.57841 8.02048 2.80533C7.97543 3.03226 8.01047 3.26778 8.11963 3.47176C8.22878 3.67575 8.40529 3.83559 8.61909 3.92404C8.83288 4.01249 9.07074 4.02408 9.29212 3.95684C9.51351 3.8896 9.70473 3.74769 9.83321 3.55529C9.96169 3.36288 10.0195 3.13189 9.99672 2.90166C9.97396 2.67143 9.87207 2.45621 9.70841 2.29268C9.61567 2.1996 9.50541 2.12581 9.38399 2.07557C9.26257 2.02534 9.1324 1.99966 9.001 2.00001Z"
      fill="currentColor"
    />
  </symbol>
  <symbol id="pointer" viewBox="0 0 79 80">
    <path
      d="M43.1316 3.51085L43.1311 3.5108C40.1678 3.21904 36.8679 3.30792 33.9374 3.75515L34.39 6.72082L33.9374 3.75515C32.5074 3.9734 31.1051 4.27446 29.7347 4.65301L29.7343 4.6531C14.3255 8.91133 3 22.9986 3 39.7412C3 59.857 19.3492 76.1497 39.5 76.1497C59.6508 76.1497 76 59.857 76 39.7412C76 20.8483 61.5797 5.33 43.1316 3.51085Z"
      fill="#ed0644"
      stroke="white"
      stroke-width="6"
    />
    <path
      fill-rule="evenodd"
      clip-rule="evenodd"
      d="M24.2251 25.0054C25.6648 25.0054 26.9681 25.5876 27.9113 26.5283C28.8552 27.4689 29.4383 28.7686 29.4383 30.2044C29.4383 31.6402 28.8545 32.9399 27.9113 33.8805C26.9681 34.8212 25.6648 35.4033 24.2251 35.4033C22.7854 35.4033 21.4821 34.8212 20.5389 33.8805C19.5957 32.9399 19.0119 31.6402 19.0119 30.2044C19.0119 28.7686 19.5957 27.4689 20.5389 26.5283C21.4821 25.5876 22.7854 25.0054 24.2251 25.0054ZM34.2034 20.1677V60.3822V62.3311L42.6049 60.2075V48.6942H46.4428C49.0577 48.6942 51.3423 48.3586 53.3194 47.7605C57.2605 46.5685 60.5651 44.1237 62.322 40.3426C64.0207 36.6872 64.0207 32.174 62.322 28.5186C60.5651 24.7368 57.2605 22.292 53.3194 21.1007C51.3423 20.5026 49.0577 20.167 46.4428 20.167C42.159 20.167 38.2788 20.1677 34.2034 20.1677ZM42.6049 40.5346H46.6623C48.1491 40.5346 49.413 40.3785 50.4767 40.1009C52.3049 39.6237 53.9752 38.6762 54.8249 36.9255C55.5257 35.4821 55.5562 33.6077 54.9274 32.1319C54.176 30.3667 52.5943 29.3674 50.8021 28.8404C49.7184 28.5221 48.4165 28.3349 46.8701 28.3204V28.3266H42.6042V40.5339L42.6049 40.5346ZM24.2251 44.8296C25.6648 44.8296 26.9681 45.4117 27.9113 46.3524C28.8552 47.293 29.4383 48.5927 29.4383 50.0285C29.4383 51.4643 28.8545 52.764 27.9113 53.7047C26.9681 54.6453 25.6648 55.2275 24.2251 55.2275C22.7854 55.2275 21.4821 54.6453 20.5389 53.7047C19.5957 52.764 19.0119 51.4643 19.0119 50.0285C19.0119 48.5927 19.5957 47.293 20.5389 46.3524C21.4821 45.4117 22.7854 44.8296 24.2251 44.8296Z"
      fill="white"
    />
  </symbol>
  <symbol id="quotation-mark" viewBox="0 0 74 59">
    <path
      d="M24.1492 27.5912C27.0241 28.8637 29.2665 30.7725 30.8765 33.3176C32.4864 35.8627 33.2914 38.8706 33.2914 42.3412C33.2914 47.3157 31.7389 51.3647 28.634 54.4882C25.5291 57.4961 21.5618 59 16.7319 59C11.9021 59 7.87723 57.4382 4.65734 54.3147C1.55245 51.1912 0 47.2 0 42.3412C0 40.0275 0.28749 37.7137 0.862471 35.4C1.43745 33.0863 2.70241 29.6157 4.65734 24.9882L14.662 0H31.7389L24.1492 27.5912ZM64.8578 27.5912C67.7327 28.8637 69.9751 30.7725 71.5851 33.3176C73.195 35.8627 74 38.8706 74 42.3412C74 47.3157 72.4475 51.3647 69.3427 54.4882C66.2378 57.4961 62.2704 59 57.4406 59C52.6107 59 48.5859 57.4382 45.366 54.3147C42.2611 51.1912 40.7086 47.2 40.7086 42.3412C40.7086 40.0275 40.9961 37.7137 41.5711 35.4C42.1461 33.0863 43.411 29.6157 45.366 24.9882L55.3706 0H72.4476L64.8578 27.5912Z"
      fill="#DEE3E9"
    />
  </symbol>
  <symbol id="recrangle" viewBox="0 0 34 34">
    <path d="M34 0V34H0L34 0Z" fill="#ed0644" />
  </symbol>
  <symbol id="vk" viewBox="0 0 35 35">
    <path
      fill-rule="evenodd"
      clip-rule="evenodd"
      d="M2.4603 2.4603C0 4.92061 0 8.88038 0 16.8V18.2C0 26.1196 0 30.0794 2.4603 32.5397C4.92061 35 8.88038 35 16.8 35H18.2C26.1196 35 30.0794 35 32.5397 32.5397C35 30.0794 35 26.1196 35 18.2V16.8C35 8.88038 35 4.92061 32.5397 2.4603C30.0794 0 26.1196 0 18.2 0H16.8C8.88038 0 4.92061 0 2.4603 2.4603ZM5.90632 10.6459C6.09591 19.7459 10.6458 25.2147 18.6229 25.2147H19.0751V20.0084C22.0064 20.3001 24.2228 22.4438 25.1124 25.2147H29.2542C28.1167 21.073 25.127 18.7834 23.2603 17.9084C25.127 16.8292 27.752 14.2042 28.3791 10.6459H24.6165C23.7999 13.5334 21.3793 16.1584 19.0751 16.4063V10.6459H15.3125V20.7376C12.9792 20.1542 10.0334 17.3251 9.90216 10.6459H5.90632Z"
      fill="white"
    />
  </symbol>
  <symbol id="black-vk" viewBox="0 0 35 35" width="35" height="35">
    <path
      fill-rule="evenodd"
      clip-rule="evenodd"
      d="M2.4603 2.4603C0 4.92061 0 8.88038 0 16.8V18.2C0 26.1196 0 30.0794 2.4603 32.5397C4.92061 35 8.88038 35 16.8 35H18.2C26.1196 35 30.0794 35 32.5397 32.5397C35 30.0794 35 26.1196 35 18.2V16.8C35 8.88038 35 4.92061 32.5397 2.4603C30.0794 0 26.1196 0 18.2 0H16.8C8.88038 0 4.92061 0 2.4603 2.4603ZM5.90632 10.6459C6.09591 19.7459 10.6458 25.2147 18.6229 25.2147H19.0751V20.0084C22.0064 20.3001 24.2228 22.4438 25.1124 25.2147H29.2542C28.1167 21.073 25.127 18.7834 23.2603 17.9084C25.127 16.8292 27.752 14.2042 28.3791 10.6459H24.6165C23.7999 13.5334 21.3793 16.1584 19.0751 16.4063V10.6459H15.3125V20.7376C12.9792 20.1542 10.0334 17.3251 9.90216 10.6459H5.90632Z"
      fill="#212121"
    />
  </symbol>
  <symbol id="rectangle" viewBox="0 0 34 34" width="34" height="34">
    <path d="M34 0V34H0L34 0Z" fill="#ed0644" />
  </symbol>
  <symbol id="arrowBtn" viewBox="0 0 9 13" width="9" height="13">
    <path d="M1.5 1L7 6.5L1.5 12" stroke-width="2" fill="none" />
  </symbol>
  <symbol id="comma" width="74" height="59" viewBox="0 0 74 59">
    <path
      d="M24.1492 27.5912C27.0241 28.8637 29.2665 30.7725 30.8765 33.3176C32.4864 35.8627 33.2914 38.8706 33.2914 42.3412C33.2914 47.3157 31.7389 51.3647 28.634 54.4882C25.5291 57.4961 21.5618 59 16.7319 59C11.9021 59 7.87723 57.4382 4.65734 54.3147C1.55245 51.1912 0 47.2 0 42.3412C0 40.0275 0.28749 37.7137 0.862471 35.4C1.43745 33.0863 2.70241 29.6157 4.65734 24.9882L14.662 0H31.7389L24.1492 27.5912ZM64.8578 27.5912C67.7327 28.8637 69.9751 30.7725 71.5851 33.3176C73.195 35.8627 74 38.8706 74 42.3412C74 47.3157 72.4475 51.3647 69.3427 54.4882C66.2378 57.4961 62.2704 59 57.4406 59C52.6107 59 48.5859 57.4382 45.366 54.3147C42.2611 51.1912 40.7086 47.2 40.7086 42.3412C40.7086 40.0275 40.9961 37.7137 41.5711 35.4C42.1461 33.0863 43.411 29.6157 45.366 24.9882L55.3706 0H72.4476L64.8578 27.5912Z"
      fill="#DEE3E9"
    />
  </symbol>
  <symbol id="play" viewBox="0 0 21 24" width="21" height="24">
    <path
      d="M19.0861 10.2781L3.01746 0.783044C1.68423 -0.00477445 0 0.956297 0 2.5049V21.4951C0 23.0437 1.68422 24.0048 3.01745 23.217L19.0861 13.7219C20.3962 12.9477 20.3962 11.0523 19.0861 10.2781Z"
      fill="currentColor"
    />
  </symbol>

  <symbol id="arrow-left" width="9" height="13" viewBox="0 0 9 13" fill="none">
    <path d="M7.5 1L2 6.5L7.5 12" stroke-width="2" />
  </symbol>
  <symbol id="arrow-right" width="9" height="13" viewBox="0 0 9 13" fill="none">
    <path d="M1.5 1L7 6.5L1.5 12" stroke-width="2" />
  </symbol>

  <symbol width="45" height="54" viewBox="0 0 45 54" id="mark">
    <path
      d="M6 19.6264C6 24.9398 10.0012 32.6705 18.0036 42.8184C19.0253 44.114 20.9713 44.386 22.35 43.4258C22.5961 43.2544 22.814 43.0497 22.9964 42.8184C30.9988 32.6705 35 24.9398 35 19.6264C35 12.0929 28.5164 6 20.5 6C12.4836 6 6 12.0929 6 19.6264Z"
      fill="white"
    />

    <circle cx="20.5" cy="20.5" r="8.5" fill="#ED0644" />
    <path
      fill-rule="evenodd"
      clip-rule="evenodd"
      d="M15.0919 15.7657C15.5431 15.7657 15.9516 15.9487 16.2473 16.2444C16.5431 16.54 16.7259 16.9486 16.7259 17.3999C16.7259 17.8512 16.5429 18.2598 16.2473 18.5555C15.9516 18.8511 15.5431 19.0341 15.0919 19.0341C14.6406 19.0341 14.2321 18.8511 13.9365 18.5555C13.6409 18.2598 13.4579 17.8512 13.4579 17.3999C13.4579 16.9486 13.6409 16.54 13.9365 16.2444C14.2321 15.9487 14.6406 15.7657 15.0919 15.7657ZM21.546 10.0486C26.8538 10.5735 31 15.0517 31 20.4986C31 26.2984 26.299 31 20.5 31C14.701 31 10 26.2984 10 20.4986C10 15.6724 13.2554 11.607 17.6896 10.3781C18.0838 10.2689 18.487 10.1821 18.8984 10.1191C19.7394 9.99041 20.6951 9.96457 21.546 10.0486ZM18.2194 14.245V26.8858V27.4984L20.8527 26.8309V23.2119H22.0556C22.8752 23.2119 23.5913 23.1064 24.211 22.9184C25.4462 22.5437 26.482 21.7752 27.0327 20.5867C27.5651 19.4377 27.5651 18.019 27.0327 16.87C26.482 15.6813 25.4462 14.9128 24.211 14.5383C23.5913 14.3503 22.8752 14.2448 22.0556 14.2448C20.7129 14.2448 19.4968 14.245 18.2194 14.245ZM20.8527 20.6471H22.1244C22.5904 20.6471 22.9866 20.598 23.32 20.5107C23.893 20.3607 24.4165 20.0629 24.6829 19.5126C24.9025 19.0589 24.9121 18.4697 24.715 18.0058C24.4795 17.4509 23.9837 17.1368 23.422 16.9712C23.0823 16.8711 22.6742 16.8123 22.1895 16.8077V16.8097H20.8525L20.8527 20.6471ZM15.0919 21.9971C15.5431 21.9971 15.9516 22.1801 16.2473 22.4758C16.5431 22.7714 16.7259 23.18 16.7259 23.6313C16.7259 24.0826 16.5429 24.4912 16.2473 24.7868C15.9516 25.0825 15.5431 25.2655 15.0919 25.2655C14.6406 25.2655 14.2321 25.0825 13.9365 24.7868C13.6409 24.4912 13.4579 24.0826 13.4579 23.6313C13.4579 23.18 13.6409 22.7714 13.9365 22.4758C14.2321 22.1801 14.6406 21.9971 15.0919 21.9971Z"
      fill="white"
    />
    <defs>
      <filter
        id="filter0_d_270_7945"
        x="0"
        y="0"
        width="45"
        height="54"
        filterUnits="userSpaceOnUse"
        color-interpolation-filters="sRGB"
      >
        <feFlood flood-opacity="0" result="BackgroundImageFix" />
        <feColorMatrix
          in="SourceAlpha"
          type="matrix"
          values="0 0 0 0 0 0 0 0 0 0 0 0 0 0 0 0 0 0 127 0"
          result="hardAlpha"
        />
        <feOffset dx="2" dy="2" />
        <feGaussianBlur stdDeviation="4" />
        <feComposite in2="hardAlpha" operator="out" />
        <feColorMatrix type="matrix" values="0 0 0 0 0 0 0 0 0 0 0 0 0 0 0 0 0 0 0.2 0" />
        <feBlend mode="normal" in2="BackgroundImageFix" result="effect1_dropShadow_270_7945" />
        <feBlend mode="normal" in="SourceGraphic" in2="effect1_dropShadow_270_7945" result="shape" />
      </filter>
    </defs>
  </symbol>

  <symbol width="20" height="20" viewBox="0 0 64 64" id="paper">
    <path
      fill="currentColor"
      d="M52,64c2.206,0,4-1.794,4-4V4c0-2.206-1.794-4-4-4H26c-1.638,0-3.668,0.841-4.828,2L10,13.171C8.841,14.33,8,16.36,8,18v42
		c0,2.206,1.794,4,4,4H52z M52,4l0,56h0H12V18h10c2.206,0,4-1.794,4-4V4H52z M22,6.828V14h-7.172L22,6.828z"
    />
    <path fill="currentColor" d="M32,16h12c1.104,0,2-0.896,2-2s-0.896-2-2-2H32c-1.104,0-2,0.896-2,2S30.896,16,32,16z" />
    <path fill="currentColor" d="M44,22H20c-1.104,0-2,0.896-2,2s0.896,2,2,2h24c1.104,0,2-0.896,2-2S45.104,22,44,22z" />
    <path fill="currentColor" d="M44,32H20c-1.104,0-2,0.896-2,2s0.896,2,2,2h24c1.104,0,2-0.896,2-2S45.104,32,44,32z" />
    <path fill="currentColor" d="M44,42H20c-1.104,0-2,0.896-2,2s0.896,2,2,2h24c1.104,0,2-0.896,2-2S45.104,42,44,42z" />
    <path fill="currentColor" d="M44,52H20c-1.104,0-2,0.896-2,2s0.896,2,2,2h24c1.104,0,2-0.896,2-2S45.104,52,44,52z" />
  </symbol>

  <symbol id="preloader" viewBox="0 0 150 78">
    <path
      width="150"
      height="78"
      d="M34.1546 3.56447C34.9772 2.34568 35.9465 1.49446 37.0561 1.01727C38.1576 0.540071 39.2092 0.304697 40.1849 0.304697C40.3317 0.304697 40.9849 0.364345 42.1687 0.482032V7.26436C41.5816 7.02898 40.9285 6.9113 40.1849 6.9113C39.0318 6.9113 38.0189 7.15312 37.1512 7.63838C36.2851 8.12364 35.6239 8.82008 35.1529 9.7374C34.6901 10.6483 34.4546 11.7349 34.4546 12.9891V22.0623H26.7437V0.788342H34.1546V3.56285V3.56447ZM17.8055 55.982H25.3131V66.6931C25.3131 69.2161 25.6276 71.291 28.6162 71.291H28.6936H28.771C31.7596 71.291 32.0741 69.2161 32.0741 66.6931V55.982H39.5817V67.13C39.5817 69.724 39.0931 72.2373 38.0689 73.7721C36.2368 76.5176 31.8757 77.4639 28.7727 77.4639H28.6952H28.6178C25.5131 77.4639 21.1537 76.5176 19.3215 73.7721C18.2974 72.2373 17.8087 69.724 17.8087 67.13V55.982H17.8055ZM7.41411 58.7952C8.23665 57.5764 9.20595 56.7252 10.3156 56.248C12.3655 55.3613 13.3557 55.5064 15.4266 55.7128V62.4951C14.8395 62.2597 14.1847 62.142 13.4428 62.142C12.2897 62.142 11.2752 62.3838 10.4091 62.8691C9.54304 63.3527 8.88178 64.0508 8.41084 64.9697C7.94796 65.8806 7.71248 66.9672 7.71248 68.2214V77.2963H0.00161439V56.0207H7.4125V58.7952H7.41411ZM49.7102 47.0716C51.2892 47.0716 52.4714 46.5138 53.2649 45.4047C54.0648 44.2971 54.4616 42.8784 54.4616 41.1679C54.4616 39.48 54.0648 38.0774 53.2713 36.9683C52.4778 35.8591 51.2956 35.3094 49.7086 35.3094C48.1152 35.3094 46.9249 35.8591 46.133 36.9683C45.3395 38.0774 44.9428 39.4784 44.9428 41.1679C44.9428 42.8784 45.3395 44.2955 46.1395 45.4047C46.933 46.5122 48.1232 47.0716 49.7086 47.0716H49.7102ZM49.7102 52.6223C47.0668 52.6223 44.7815 52.1451 42.8574 51.1842C40.9333 50.2298 39.4721 48.8853 38.4657 47.1538C37.4673 45.4208 36.9674 43.4314 36.9674 41.1711C36.9674 37.7437 38.098 34.9901 40.3607 32.8976C42.6155 30.805 45.7362 29.7619 49.7102 29.7619C52.3327 29.7619 54.6084 30.2391 56.5325 31.1935C58.4501 32.1479 59.9194 33.4925 60.9241 35.2175C61.9305 36.9505 62.437 38.9319 62.437 41.1711C62.437 43.433 61.937 45.4224 60.9387 47.1538C59.9323 48.8869 58.4711 50.2298 56.547 51.1842C54.6229 52.1467 52.3391 52.6223 49.7102 52.6223ZM65.4723 51.8291V36.1041H62.6966V30.5535H65.4723V24.6949H73.1832V30.5535H76.9572V36.1041H73.1832V51.8291H65.4723ZM79.6296 30.5551H87.3405V51.8291H79.6296V30.5551ZM102.515 47.0732C104.094 47.0732 105.277 46.5154 106.07 45.4063C106.872 44.2987 107.267 42.88 107.267 41.1695C107.267 39.4816 106.87 38.079 106.077 36.9699C105.285 35.8623 104.101 35.311 102.514 35.311C100.92 35.311 99.7301 35.8607 98.9382 36.9699C98.1447 38.079 97.748 39.48 97.748 41.1695C97.748 42.88 98.1447 44.2971 98.9447 45.4063C99.7382 46.5138 100.928 47.0732 102.514 47.0732H102.515ZM102.515 52.6239C99.8721 52.6239 97.5883 52.1467 95.6626 51.1858C93.7385 50.2314 92.2773 48.8869 91.2709 47.1555C90.2726 45.4224 89.7726 43.433 89.7726 41.1728C89.7726 37.7453 90.9048 34.9918 93.166 32.8992C95.4207 30.8066 98.5415 29.7636 102.514 29.7636C105.136 29.7636 107.412 30.2408 109.338 31.1951C111.254 32.1495 112.723 33.4941 113.729 35.2191C114.736 36.9521 115.242 38.9335 115.242 41.1728C115.242 43.4346 114.742 45.424 113.744 47.1555C112.737 48.8885 111.276 50.2314 109.352 51.1858C107.428 52.1483 105.144 52.6239 102.514 52.6239H102.515ZM125.372 33.0233C127.04 30.8501 129.338 29.7636 132.291 29.7636C135.412 29.7636 137.462 30.7631 138.423 32.7525C139.386 34.7499 139.87 36.9666 139.87 39.4107V51.8323H132.159V40.1087C132.159 37.4438 131.248 36.1074 129.427 36.1074C128.259 36.1074 127.29 36.5765 126.525 37.5083C125.755 38.4482 125.372 39.725 125.372 41.3469V51.8307H117.661V30.5567H125.372V33.0233ZM141.979 48.6161C141.979 47.9325 142.155 47.2876 142.5 46.6702C142.846 46.0543 143.331 45.5546 143.941 45.1806C144.557 44.7985 145.241 44.6083 145.989 44.6083C147.179 44.6083 148.148 45.0113 148.89 45.827C149.632 46.6412 150 47.5665 150 48.6161C150 49.643 149.632 50.5764 148.89 51.3906C148.157 52.2128 147.187 52.6239 145.989 52.6239C144.844 52.6239 143.889 52.2208 143.125 51.4051C142.36 50.5893 141.979 49.6575 141.979 48.6161V48.6161ZM7.71409 29.9232V30.5567V32.8025C9.54303 30.776 11.7752 29.7636 14.4121 29.7636C17.4604 29.7636 19.5893 30.8501 20.8021 33.0233C21.7279 31.8561 22.7181 31.0194 23.7761 30.5197C24.8261 30.0134 26.0825 29.7636 27.5372 29.7636C29.4016 29.7636 30.879 30.1747 31.9725 30.9968C33.066 31.819 33.8159 32.8025 34.2336 33.9632C34.653 35.1223 34.8578 36.275 34.8578 37.4277V51.8307H27.1469V39.4091C27.1469 37.2069 26.3389 36.1058 24.7164 36.1058C23.8197 36.1058 23.0278 36.4508 22.3294 37.1472C21.6327 37.8437 21.286 38.9319 21.286 40.4215V51.8307H13.5751V39.4091C13.5751 37.2069 12.767 36.1058 11.1591 36.1058C10.2559 36.1058 9.45593 36.4508 8.75758 37.1408C8.05923 37.8372 7.71409 38.9254 7.71409 40.4215V51.8307H0.00322878V32.8621V32.4446L7.71409 29.9232V29.9232ZM56.0276 17.4032C57.6066 17.4032 58.7888 16.8454 59.5823 15.7362C60.3822 14.6271 60.7806 13.2116 60.7806 11.4995C60.7806 9.81156 60.3839 8.40899 59.5903 7.29982C58.7968 6.19066 57.6146 5.64092 56.0276 5.64092C54.4342 5.64092 53.2439 6.19066 52.4504 7.29982C51.6569 8.40737 51.2601 9.80994 51.2601 11.4995C51.2601 13.21 51.6569 14.6271 52.4569 15.7362C53.2504 16.8438 54.4406 17.4032 56.026 17.4032H56.0276ZM55.6777 22.8603C53.0342 22.8603 51.0989 22.4766 49.1748 21.5142C47.2507 20.5598 45.7895 19.2169 44.7831 17.4838C43.7847 15.7507 43.2848 13.7613 43.2848 11.5011C43.2848 8.07366 44.4153 5.3201 46.6781 3.22753C48.9328 1.13496 52.0537 0.0935051 56.0276 0.0935051C58.6501 0.0935051 60.9258 0.5707 62.8498 1.52509C64.7659 2.47949 66.2351 3.82402 67.2415 5.54903C68.2479 7.28209 68.7544 9.26343 68.7544 11.5027C68.7544 13.7646 68.2544 15.7539 67.2561 17.4854C66.2497 19.2185 64.7885 20.5614 62.8644 21.5158C60.9403 22.4782 58.3065 22.8619 55.6777 22.8619V22.8603ZM7.4125 0.793179V3.38391C8.41083 2.14416 9.45433 1.27037 10.5414 0.764159C11.6365 0.257943 12.9283 0 14.4186 0C15.9975 0 17.4071 0.301472 18.6635 0.896356C19.9118 1.49769 20.9553 2.31344 21.7843 3.34844C22.6068 4.38344 23.2391 5.60223 23.6713 6.98868C24.1052 8.37674 24.3245 9.85186 24.3245 11.4076C24.3245 13.3535 23.9503 15.2026 23.2084 16.9582C22.4585 18.7123 21.3359 20.1374 19.8296 21.224C18.3313 22.3186 16.5249 22.8619 14.417 22.8619C11.7284 22.8619 9.49625 21.8785 7.71087 19.9036V25.846L0 28.3674V28.3336V0.79479H7.41088L7.4125 0.793179ZM12.7896 16.5181C14.2428 16.5181 15.3814 16.0329 16.1975 15.064C17.0136 14.095 17.4168 12.8763 17.4168 11.4076C17.4168 9.95504 17.0136 8.7427 16.1975 7.78186C15.3814 6.8194 14.2444 6.34382 12.7896 6.34382C11.2107 6.34382 10.043 6.85809 9.29305 7.8931C8.54309 8.9281 8.16892 10.0953 8.16892 11.4092C8.16892 12.7457 8.54309 13.9274 9.29305 14.9624C10.0495 15.9974 11.2091 16.5181 12.7896 16.5181Z"
      fill="currentColor"
    />
  </symbol>
  
  <symbol viewBox="0 0 32 40" id="popup-tel">
    <path
      d="M19.5,28.2c-0.6,0-1.2-0.3-1.6-0.8L4.4,13.9c-0.4-0.4-0.7-1-0.8-1.6c0-0.6,0.2-1.1,0.5-1.5l6.9-6.9C12,3,13.5,3.1,14.3,4  l13.5,13.5c0.4,0.4,0.7,1,0.8,1.6c0.1,0.6-0.1,1.1-0.5,1.6l-6.9,6.9C20.7,28,20.1,28.2,19.5,28.2z M12.8,4.8c-0.2,0-0.4,0-0.5,0.2  l-6.9,6.9c-0.1,0.1-0.2,0.3-0.2,0.5c0,0.2,0.1,0.4,0.3,0.5l13.5,13.5c0.3,0.3,0.7,0.3,1.1,0.1l6.9-6.9c0.1-0.1,0.2-0.3,0.2-0.5  c0-0.2-0.1-0.4-0.3-0.5L13.3,5C13.2,4.9,13,4.8,12.8,4.8z"
    />
    <path
      d="M10.9,26l-0.7,1c-1-0.6-1.9-1.3-2.7-2.1c-2-2-3.3-4.6-3.5-7.4c0-0.4-0.4-0.7-0.8-0.7c-0.4,0-0.8,0.3-0.8,0.8  c0,0,0,0.1,0,0.1c0.3,3.2,1.7,6.2,4,8.4c2.1,2.2,4.9,3.6,8,3.9c0.2,0,0.3-0.2,0.2-0.3L10.9,26z"
    />
    <path
      d="M29.6,14.4c-0.3-3.2-1.7-6.2-4-8.4c-2.1-2.2-4.9-3.6-8-3.9c-0.2,0-0.3,0.2-0.2,0.3L21.1,6l0.7-1c1,0.6,1.9,1.3,2.7,2.1  c2,2,3.3,4.6,3.5,7.4c0,0.4,0.4,0.7,0.8,0.7C29.2,15.2,29.6,14.9,29.6,14.4C29.6,14.4,29.6,14.4,29.6,14.4z"
    />
  </symbol>
</svg>
